<?xml version="1.0" encoding="UTF-8"?>
<svg version="1.1" xmlns="http://www.w3.org/2000/svg" width="481" height="519">
<path d="M0 0 C2.40186836 3.60280254 2.35413926 5.50195561 2.5625 9.80078125 C2.61664063 10.84568474 2.61664063 10.84568474 2.671875 11.91169739 C2.79118164 14.27409422 2.89611879 16.63687723 3 19 C3.08169675 20.74138942 3.16373843 22.48276269 3.24609375 24.22412109 C3.5541686 30.84854663 3.84058275 37.47388762 4.125 44.09936523 C4.61919403 55.55945463 5.23324507 66.97482722 6.2043457 78.40527344 C6.38548193 82.01818475 6.30329587 83.62088017 4 86.5 C3.34 86.995 2.68 87.49 2 88 C3.1446875 88.0928125 3.1446875 88.0928125 4.3125 88.1875 C7 89 7 89 8.8125 91 C10.19803466 94.50029809 10.17074516 97.12764515 10.046875 100.84375 C9.99188308 103.37337853 10.24443154 105.58218092 11 108 C11.66 108.33 12.32 108.66 13 109 C14.10546875 110.77734375 14.10546875 110.77734375 15.1875 112.9375 C15.55230469 113.64777344 15.91710937 114.35804688 16.29296875 115.08984375 C16.64294922 116.03537109 16.64294922 116.03537109 17 117 C16.67 117.66 16.34 118.32 16 119 C16.53625 118.814375 17.0725 118.62875 17.625 118.4375 C20.67090427 117.87641237 23.00101599 118.28285165 26 119 C26.66 119.66 27.32 120.32 28 121 C31.13545766 121.02135378 31.13545766 121.02135378 34.625 120.625 C35.81351562 120.51414062 37.00203125 120.40328125 38.2265625 120.2890625 C39.14179688 120.19367188 40.05703125 120.09828125 41 120 C37.57610268 118.7702904 35.04544769 118.00078358 31.375 117.9375 C28 117 28 117 26.59765625 115.25390625 C23.98268843 110.17364891 23.71073083 106.35305602 25.03125 100.84765625 C26.27076479 98.48358166 27.55944141 97.95521863 30 97 C29.484375 96.5875 28.96875 96.175 28.4375 95.75 C27.963125 95.1725 27.48875 94.595 27 94 C27.3125 91.8125 27.3125 91.8125 28 90 C29.03125 89.835 30.0625 89.67 31.125 89.5 C35.47086362 88.29963041 37.11091784 85.66763004 39.4453125 81.97265625 C42.04275906 78.67690119 44.7056894 77.21423072 48.83203125 76.53125 C57.96952232 76.43544406 62.21388996 78.69722316 68.9375 84.5625 C72.30607204 88.99302865 72.27729127 94.64134612 72 100 C71.36568707 102.34469243 70.54858008 104.50519845 69.63671875 106.75390625 C68.47907465 110.83762009 69.2859196 114.87898178 70 119 C72.31 119.66 74.62 120.32 77 121 C77 121.66 77 122.32 77 123 C77.99 123 78.98 123 80 123 C80 123.66 80 124.32 80 125 C80.66 125 81.32 125 82 125 C83.15679408 130.18855319 83.1838408 135.14263846 83.1875 140.4375 C83.19974609 141.36626953 83.21199219 142.29503906 83.22460938 143.25195312 C83.23551825 148.36094437 82.66582982 152.15003791 81 157 C80.46093803 160.94551465 80.1699901 164.90472341 79.875 168.875 C79.78863281 169.92558594 79.70226562 170.97617188 79.61328125 172.05859375 C79.25739698 176.57211013 78.95190101 181.04148179 79.0078125 185.5703125 C79 189 79 189 78 192 C77.34 192 76.68 192 76 192 C75.83698416 195.91245975 75.83698416 195.91245975 76.54296875 199.72265625 C78.18481531 207.90382331 75.74296384 218.39778408 71.3046875 225.3046875 C69.69958022 227.39036583 67.9270046 229.21063859 66 231 C64.46507624 235.60477129 64.60669507 240.31344055 64.37890625 245.140625 C64.00154114 248.98430258 63.15367108 252.32351513 62 256 C61.64628502 257.66246041 61.30404678 259.32774271 61 261 C61.66 261 62.32 261 63 261 C63.04125 261.61875 63.0825 262.2375 63.125 262.875 C63.82062059 265.24104108 63.82062059 265.24104108 66.375 266.125 C70.36596334 267.08833598 74.35905774 267.80142082 78.4140625 268.4375 C80.90342681 268.97899314 82.79062185 269.75527992 85 271 C85 271.66 85 272.32 85 273 C86.32 273 87.64 273 89 273 C89 273.66 89 274.32 89 275 C93.7897321 275.23428313 93.7897321 275.23428313 98 273 C100.33199388 272.92094936 102.66832622 272.91201231 105 273 C105.33 273.99 105.66 274.98 106 276 C107.32 276 108.64 276 110 276 C110.33 276.99 110.66 277.98 111 279 C116.61 279.99 122.22 280.98 128 282 C129.5329775 288.13191002 127.51184437 292.47909552 124.30859375 297.8203125 C123.10171424 299.66968527 121.87389303 301.50563915 120.62109375 303.32421875 C118.90970701 306.14903783 118.03027168 308.87484257 117 312 C114.38051141 315.02248683 112.80804192 316.73065269 109 318 C106.98170839 318.11904875 104.95926229 318.17521712 102.9375 318.1875 C101.87402344 318.20167969 100.81054688 318.21585937 99.71484375 318.23046875 C97 318 97 318 95 316 C95.375 313.375 95.375 313.375 96 311 C96.99 310.67 97.98 310.34 99 310 C99.79953138 306.71303767 100.09658936 305.28976808 99 302 C97.84242188 301.87496094 96.68484375 301.74992187 95.4921875 301.62109375 C89.0731148 300.90688719 82.66297529 300.11979893 76.25341797 299.32543945 C74.83821679 299.15060903 73.42285182 298.97709922 72.00732422 298.80493164 C47.86800971 295.86800971 47.86800971 295.86800971 45 293 C42.93659814 292.39474956 42.93659814 292.39474956 40.625 292 C38.16152062 291.53861256 36.18303512 291.09273316 33.94140625 289.95703125 C31.80623793 288.75774845 31.80623793 288.75774845 28.3125 288.6875 C22.47750916 288.0963377 17.12179454 285.12179454 13 281 C12.44914838 276.15250576 13.60667758 273.18831424 16 269 C17.32 269 18.64 269 20 269 C20 268.34 20 267.68 20 267 C20.60328125 266.86722656 21.2065625 266.73445313 21.828125 266.59765625 C22.62734375 266.42105469 23.4265625 266.24445313 24.25 266.0625 C25.03890625 265.88847656 25.8278125 265.71445312 26.640625 265.53515625 C28.76878703 265.052444 30.88532842 264.53836822 33 264 C32.505 262.9275 32.01 261.855 31.5 260.75 C30.11346089 257.74583192 30 256.54065105 30 253 C29.37351562 253.28875 28.74703125 253.5775 28.1015625 253.875 C26.87566406 254.431875 26.87566406 254.431875 25.625 255 C24.81289062 255.37125 24.00078125 255.7425 23.1640625 256.125 C21 257 21 257 19 257 C17.35471386 260.12752591 16.08297501 263.3053057 14.875 266.625 C14.52179688 267.58664062 14.16859375 268.54828125 13.8046875 269.5390625 C12.89640291 271.88529985 12.89640291 271.88529985 13 274 C12.34 274 11.68 274 11 274 C10.72800781 274.55816406 10.45601562 275.11632812 10.17578125 275.69140625 C6.85785881 282.20599816 3.40491877 288.04549113 -2 293 C-4.12147978 296.18221967 -4.40334295 297.65353465 -4.75 301.375 C-4.84796875 302.31085938 -4.9459375 303.24671875 -5.046875 304.2109375 C-4.99539001 307.2742944 -4.22436515 309.21947609 -3 312 C-2.875 314.8125 -2.875 314.8125 -3 317 C-7.79301311 319.50454579 -12.24558547 319.18937309 -17.5 319.0625 C-23.45087564 318.9752169 -29.2575934 319.01446524 -35.1875 319.625 C-40.28891726 320.07203141 -45.28241155 320.28199628 -50 318 C-51.5625 315.375 -51.5625 315.375 -52 313 C-49.62719599 310.26815328 -47.36453411 309.14671379 -44 307.875 C-43.13375 307.54242188 -42.2675 307.20984375 -41.375 306.8671875 C-39.5933571 306.21665341 -37.79936139 305.59978713 -36 305 C-36 304.34 -36 303.68 -36 303 C-34.68 303 -33.36 303 -32 303 C-32.03770508 302.35023193 -32.07541016 301.70046387 -32.11425781 301.03100586 C-32.36190759 293.3572645 -30.95861962 286.87798908 -28.75 279.5625 C-28.44964844 278.52029297 -28.14929688 277.47808594 -27.83984375 276.40429688 C-24.4217181 264.67358055 -20.45244752 253.90489504 -15 243 C-14.65839844 242.25492188 -14.31679687 241.50984375 -13.96484375 240.7421875 C-13 239 -13 239 -11 238 C-10.31974363 236.00458132 -9.65509503 234.00382009 -9 232 C-8.03567924 230.31243867 -7.03789581 228.64333504 -6 227 C-5.31903578 225.67391178 -4.64669414 224.34313399 -4 223 C-3.34 223 -2.68 223 -2 223 C-1.7525 222.4225 -1.505 221.845 -1.25 221.25 C0.55036175 218.00934885 2.57072807 215.69158319 5.9375 214.0625 C8.95427536 213.97108256 10.53645658 215.33710819 13 217 C14.32608822 217.68096422 15.65686601 218.35330586 17 219 C17.26554687 218.4121875 17.53109375 217.824375 17.8046875 217.21875 C19.02392084 214.95559792 20.40359134 213.39604432 22.125 211.5 C25.54206617 207.04871284 25.4398951 203.51214155 25.1484375 198.05078125 C24.93529115 193.67006286 25.26552745 189.32522724 26 185 C26.33 184.67 26.66 184.34 27 184 C27.14550122 182.50804995 27.22722981 181.00977329 27.28125 179.51171875 C27.31806885 178.58246582 27.3548877 177.65321289 27.39282227 176.69580078 C27.42819092 175.70306152 27.46355957 174.71032227 27.5 173.6875 C27.81654757 165.76677624 28.21763337 157.89025071 29 150 C27.02 149.67 25.04 149.34 23 149 C23 148.34 23 147.68 23 147 C21.9275 146.95875 20.855 146.9175 19.75 146.875 C16 146 16 146 13.625 143.375 C11.91179435 139.81680366 11.449518 136.89582267 11 133 C9.16116119 130.71271266 9.16116119 130.71271266 6.375 130.875 C5.59125 130.91625 4.8075 130.9575 4 131 C4 131.66 4 132.32 4 133 C1.69 133 -0.62 133 -3 133 C-4.88391785 129.73454239 -5.49287967 126.71888239 -6 123 C-8.97 122.01 -8.97 122.01 -12 121 C-12.03738281 120.40832031 -12.07476562 119.81664062 -12.11328125 119.20703125 C-12.17902344 118.41683594 -12.24476563 117.62664062 -12.3125 116.8125 C-12.39951172 115.64654297 -12.39951172 115.64654297 -12.48828125 114.45703125 C-12.85970987 111.90227662 -12.85970987 111.90227662 -14.51953125 109.734375 C-16.57877155 105.93102881 -16.44073258 102.69185869 -16.375 98.4375 C-16.38660156 97.68275391 -16.39820313 96.92800781 -16.41015625 96.15039062 C-16.38601228 91.58315631 -15.73146321 89.51801021 -13 86 C-12.59825052 82.5705548 -12.59825052 82.5705548 -12.75 78.8125 C-12.76546875 77.56082031 -12.7809375 76.30914062 -12.796875 75.01953125 C-12.90075383 72.2452148 -13.15106323 69.52135465 -13.484375 66.765625 C-14.27065837 60.13260093 -14.38158893 53.46571147 -14.60546875 46.79492188 C-14.78672663 41.86658256 -15.06920252 37.0464187 -15.74609375 32.15600586 C-16.32649755 27.22759631 -16.51256091 22.26686939 -16.75 17.3125 C-16.85248047 15.6409082 -16.85248047 15.6409082 -16.95703125 13.93554688 C-17.00730469 12.85982422 -17.05757812 11.78410156 -17.109375 10.67578125 C-17.16061523 9.70552002 -17.21185547 8.73525879 -17.26464844 7.7355957 C-16.94629106 4.44482595 -15.95245569 2.64167841 -14 0 C-9.81079831 -1.7249654 -4.3315148 -1.19137932 0 0 Z M31 107 C31.99 108.32 32.98 109.64 34 111 C34 109.68 34 108.36 34 107 C33.01 107 32.02 107 31 107 Z " fill="#1D4F90" transform="translate(202,81)"/>
<path d="M0 0 C0.66 0.33 1.32 0.66 2 1 C2.38133299 2.9914056 2.71325582 4.99279077 3 7 C3.495 7.99 3.495 7.99 4 9 C1.525 8.505 1.525 8.505 -1 8 C-1.33 8.99 -1.66 9.98 -2 11 C-0.68 11.33 0.64 11.66 2 12 C0.68 13.65 -0.64 15.3 -2 17 C-1.62875 17.66 -1.2575 18.32 -0.875 19 C0.37318821 23.27950245 -0.66196464 25.77462516 -2 30 C-2.495 30.495 -2.495 30.495 -3 31 C-2.34 31.99 -1.68 32.98 -1 34 C-0.67 32.02 -0.34 30.04 0 28 C0.99 28.99 1.98 29.98 3 31 C2.34 31 1.68 31 1 31 C1 31.66 1 32.32 1 33 C1.598125 32.835 2.19625 32.67 2.8125 32.5 C5 32 5 32 8 32 C8 33.32 8 34.64 8 36 C7.34 36 6.68 36 6 36 C6.33 36.99 6.66 37.98 7 39 C6.01 39.33 5.02 39.66 4 40 C4 40.66 4 41.32 4 42 C3.34 42 2.68 42 2 42 C2 42.99 2 43.98 2 45 C1.34 45 0.68 45 0 45 C0.33 45.99 0.66 46.98 1 48 C1.94875 47.175 2.8975 46.35 3.875 45.5 C6.75 43 6.75 43 9 43 C9.66 42.01 10.32 41.02 11 40 C14.125 39.3125 14.125 39.3125 17 39 C17.33 38.01 17.66 37.02 18 36 C18.99 36 19.98 36 21 36 C20.7834375 36.77085937 20.566875 37.54171875 20.34375 38.3359375 C20.0653125 39.33882813 19.786875 40.34171875 19.5 41.375 C19.2215625 42.37273437 18.943125 43.37046875 18.65625 44.3984375 C17.91846985 46.87603276 17.91846985 46.87603276 18 49 C17.34 49 16.68 49 16 49 C15.72800781 49.55816406 15.45601562 50.11632812 15.17578125 50.69140625 C11.85785881 57.20599816 8.40491877 63.04549113 3 68 C0.87852022 71.18221967 0.59665705 72.65353465 0.25 76.375 C0.15203125 77.31085938 0.0540625 78.24671875 -0.046875 79.2109375 C0.00460999 82.2742944 0.77563485 84.21947609 2 87 C2.125 89.8125 2.125 89.8125 2 92 C-2.79301311 94.50454579 -7.24558547 94.18937309 -12.5 94.0625 C-18.45087564 93.9752169 -24.2575934 94.01446524 -30.1875 94.625 C-35.28891726 95.07203141 -40.28241155 95.28199628 -45 93 C-46.5625 90.375 -46.5625 90.375 -47 88 C-44.62719599 85.26815328 -42.36453411 84.14671379 -39 82.875 C-38.13375 82.54242188 -37.2675 82.20984375 -36.375 81.8671875 C-34.5933571 81.21665341 -32.79936139 80.59978713 -31 80 C-31 79.34 -31 78.68 -31 78 C-29.68 78 -28.36 78 -27 78 C-27.03770508 77.35023193 -27.07541016 76.70046387 -27.11425781 76.03100586 C-27.36190759 68.3572645 -25.95861962 61.87798908 -23.75 54.5625 C-23.29947266 52.99918945 -23.29947266 52.99918945 -22.83984375 51.40429688 C-19.4217181 39.67358055 -15.45244752 28.90489504 -10 18 C-9.65839844 17.25492187 -9.31679687 16.50984375 -8.96484375 15.7421875 C-8 14 -8 14 -6 13 C-5.31974363 11.00458132 -4.65509503 9.00382009 -4 7 C-3.0398183 5.31008021 -2.04644066 3.63790712 -1 2 C-0.67 1.34 -0.34 0.68 0 0 Z " fill="#215393" transform="translate(197,306)"/>
<path d="M0 0 C0.66 0.33 1.32 0.66 2 1 C2.38133299 2.9914056 2.71325582 4.99279077 3 7 C3.33 7.66 3.66 8.32 4 9 C1.525 8.505 1.525 8.505 -1 8 C-1.33 8.99 -1.66 9.98 -2 11 C-0.68 11.33 0.64 11.66 2 12 C0.68 13.65 -0.64 15.3 -2 17 C-1.443125 17.99 -1.443125 17.99 -0.875 19 C0.37318821 23.27950245 -0.66196464 25.77462516 -2 30 C-2.33 30.33 -2.66 30.66 -3 31 C-2.34 31.99 -1.68 32.98 -1 34 C-0.67 32.02 -0.34 30.04 0 28 C0.99 28.99 1.98 29.98 3 31 C2.34 31 1.68 31 1 31 C1 31.66 1 32.32 1 33 C1.8971875 32.7525 1.8971875 32.7525 2.8125 32.5 C5 32 5 32 8 32 C8 33.32 8 34.64 8 36 C7.34 36 6.68 36 6 36 C6.33 36.99 6.66 37.98 7 39 C5.515 39.495 5.515 39.495 4 40 C4 40.66 4 41.32 4 42 C3.34 42 2.68 42 2 42 C2 42.99 2 43.98 2 45 C1.34 45 0.68 45 0 45 C0.33 45.99 0.66 46.98 1 48 C1.94875 47.175 2.8975 46.35 3.875 45.5 C6.75 43 6.75 43 9 43 C9.66 42.01 10.32 41.02 11 40 C14.125 39.3125 14.125 39.3125 17 39 C17.33 38.01 17.66 37.02 18 36 C18.99 36 19.98 36 21 36 C20.7834375 36.77085937 20.566875 37.54171875 20.34375 38.3359375 C20.0653125 39.33882813 19.786875 40.34171875 19.5 41.375 C19.2215625 42.37273437 18.943125 43.37046875 18.65625 44.3984375 C17.91846985 46.87603276 17.91846985 46.87603276 18 49 C17.34 49 16.68 49 16 49 C15.73445313 49.55171875 15.46890625 50.1034375 15.1953125 50.671875 C13.86117291 53.27039525 12.38741369 55.75122955 10.875 58.25 C10.33617187 59.14203125 9.79734375 60.0340625 9.2421875 60.953125 C8.83226562 61.62859375 8.42234375 62.3040625 8 63 C7.4465236 60.92446352 7 59.15634036 7 57 C7.99 57 8.98 57 10 57 C10 56.34 10 55.68 10 55 C9.34 54.67 8.68 54.34 8 54 C7.01 54.99 6.02 55.98 5 57 C1.9789286 54.9859524 0.39332574 53.36720387 -1 50 C-1.99 50.66 -2.98 51.32 -4 52 C-3.773125 51.071875 -3.54625 50.14375 -3.3125 49.1875 C-3.209375 48.135625 -3.10625 47.08375 -3 46 C-4.35444301 44.22809091 -4.35444301 44.22809091 -6 43 C-6 42.34 -6 41.68 -6 41 C-6.66 40.67 -7.32 40.34 -8 40 C-7.67 37.69 -7.34 35.38 -7 33 C-9.29975705 33.87121196 -9.29975705 33.87121196 -10.0703125 36.72265625 C-10.41835937 37.82480469 -10.76640625 38.92695313 -11.125 40.0625 C-11.47820312 41.16722656 -11.83140625 42.27195312 -12.1953125 43.41015625 C-12.46085938 44.26480469 -12.72640625 45.11945313 -13 46 C-13.66 46 -14.32 46 -15 46 C-15.33 44.35 -15.66 42.7 -16 41 C-17.485 41.495 -17.485 41.495 -19 42 C-18.690625 40.80375 -18.38125 39.6075 -18.0625 38.375 C-17.39565975 35.74960798 -16.89134619 33.25300509 -16.5 30.5625 C-16.2525 29.2940625 -16.2525 29.2940625 -16 28 C-15.34 27.67 -14.68 27.34 -14 27 C-12.94100015 25.02501735 -12.94100015 25.02501735 -12 22.6875 C-8.41090147 14.20545073 -8.41090147 14.20545073 -6 13 C-5.31974363 11.00458132 -4.65509503 9.00382009 -4 7 C-3.0398183 5.31008021 -2.04644066 3.63790712 -1 2 C-0.67 1.34 -0.34 0.68 0 0 Z " fill="#285897" transform="translate(197,306)"/>
<path d="M0 0 C1.58350499 4.9154634 0.06591088 8.42299879 -2 13 C-3.70569426 15.84413685 -5.49762343 18.59332433 -7.37890625 21.32421875 C-9.09029299 24.14903783 -9.96972832 26.87484257 -11 30 C-13.61948859 33.02248683 -15.19195808 34.73065269 -19 36 C-21.01829161 36.11904875 -23.04073771 36.17521712 -25.0625 36.1875 C-26.12597656 36.20167969 -27.18945312 36.21585937 -28.28515625 36.23046875 C-31 36 -31 36 -33 34 C-32.625 31.375 -32.625 31.375 -32 29 C-31.01 28.67 -30.02 28.34 -29 28 C-28.731875 26.865625 -28.46375 25.73125 -28.1875 24.5625 C-27.795625 23.386875 -27.40375 22.21125 -27 21 C-24.06725178 19.56621198 -21.51477847 19.08380115 -18.3125 18.5625 C-15.54260147 17.8887409 -14.66600603 17.30067499 -13 15 C-11.79950593 11.89992799 -11.79950593 11.89992799 -11 9 C-15.10188836 7.58184604 -15.10188836 7.58184604 -19.3125 6.5625 C-19.869375 6.376875 -20.42625 6.19125 -21 6 C-21.33 5.01 -21.66 4.02 -22 3 C-21.34 2.67 -20.68 2.34 -20 2 C-20 2.66 -20 3.32 -20 4 C-19.01 4 -18.02 4 -17 4 C-17 3.01 -17 2.02 -17 1 C-11.02197063 -1.20927172 -6.26039609 -0.93213141 0 0 Z " fill="#1C4D8F" transform="translate(330,363)"/>
<path d="M0 0 C0.66 0.33 1.32 0.66 2 1 C2.99 0.67 3.98 0.34 5 0 C7.33299825 -0.03954234 9.66708189 -0.04401732 12 0 C12 0.66 12 1.32 12 2 C11.01 2.495 11.01 2.495 10 3 C10 3.66 10 4.32 10 5 C11.32 5.66 12.64 6.32 14 7 C14 7.66 14 8.32 14 9 C8.06 8.01 8.06 8.01 2 7 C2 7.66 2 8.32 2 9 C2.94101562 8.94070313 3.88203125 8.88140625 4.8515625 8.8203125 C9.94354085 8.82287773 14.55158115 10.37422568 19.375 11.875 C20.74591797 12.27912109 20.74591797 12.27912109 22.14453125 12.69140625 C27.14031465 14.21315305 27.14031465 14.21315305 29 15 C29.495 15.99 29.495 15.99 30 17 C29.01 17.33 28.02 17.66 27 18 C27.66 18.66 28.32 19.32 29 20 C28.505 21.485 28.505 21.485 28 23 C28.66 23 29.32 23 30 23 C30 23.66 30 24.32 30 25 C29.04287109 25.07347656 29.04287109 25.07347656 28.06640625 25.1484375 C27.24011719 25.22320312 26.41382813 25.29796875 25.5625 25.375 C24.73878906 25.44460938 23.91507812 25.51421875 23.06640625 25.5859375 C22.38449219 25.72257812 21.70257813 25.85921875 21 26 C20.67 26.66 20.34 27.32 20 28 C20 27.34 20 26.68 20 26 C17.20880221 25.77885585 14.4178788 25.57256699 11.625 25.375 C10.43390625 25.27832031 10.43390625 25.27832031 9.21875 25.1796875 C7.14971776 25.03941413 5.07374464 25.01241763 3 25 C2.34 25.66 1.68 26.32 1 27 C-1.3828125 27.1953125 -1.3828125 27.1953125 -4.125 27.125 C-5.49011719 27.09792969 -5.49011719 27.09792969 -6.8828125 27.0703125 C-7.58148438 27.04710937 -8.28015625 27.02390625 -9 27 C-9 24.69 -9 22.38 -9 20 C-8.34 20 -7.68 20 -7 20 C-7 20.66 -7 21.32 -7 22 C-5.35 21.67 -3.7 21.34 -2 21 C-2.33 20.34 -2.66 19.68 -3 19 C-2.01 19 -1.02 19 0 19 C0 20.32 0 21.64 0 23 C1.65 23 3.3 23 5 23 C5 22.34 5 21.68 5 21 C4.360625 20.896875 3.72125 20.79375 3.0625 20.6875 C2.0415625 20.3471875 2.0415625 20.3471875 1 20 C0.67 19.01 0.34 18.02 0 17 C1.258125 16.95875 2.51625 16.9175 3.8125 16.875 C4.52019531 16.85179687 5.22789062 16.82859375 5.95703125 16.8046875 C8 17 8 17 11 19 C10.01 19 9.02 19 8 19 C8 19.66 8 20.32 8 21 C8.99 21.33 9.98 21.66 11 22 C11.33 22.33 11.66 22.66 12 23 C13.99983534 22.20882096 13.99983534 22.20882096 16 21 C16.33 20.01 16.66 19.02 17 18 C16.67 17.34 16.34 16.68 16 16 C15.01 15.67 14.02 15.34 13 15 C13 15.66 13 16.32 13 17 C12.34 17 11.68 17 11 17 C11 16.34 11 15.68 11 15 C10.16855469 15 9.33710938 15 8.48046875 15 C4.3203125 15 0.16015625 15 -4 15 C-6.34210921 15.63514826 -8.67684969 16.2986716 -11 17 C-12.1875 14.375 -12.1875 14.375 -13 11 C-11.625 7.625 -11.625 7.625 -10 5 C-8.68 5 -7.36 5 -6 5 C-6 5.66 -6 6.32 -6 7 C-3.03 7.495 -3.03 7.495 0 8 C-0.2784375 6.2984375 -0.2784375 6.2984375 -0.5625 4.5625 C-0.706875 3.386875 -0.85125 2.21125 -1 1 C-0.67 0.67 -0.34 0.34 0 0 Z M29 21 C29.66 21 30.32 21 31 21 C30.67 21.66 30.34 22.32 30 23 C29.67 22.34 29.34 21.68 29 21 Z " fill="#184A89" transform="translate(258,348)"/>
<path d="M0 0 C0.99 0.33 1.98 0.66 3 1 C2.67 1.66 2.34 2.32 2 3 C6.65052872 3.26932521 6.65052872 3.26932521 11 2 C12.35384615 8.27692308 12.35384615 8.27692308 10.5625 11.9375 C9.7890625 12.9584375 9.7890625 12.9584375 9 14 C9.66 14 10.32 14 11 14 C11 15.65 11 17.3 11 19 C10.34 19 9.68 19 9 19 C9 18.01 9 17.02 9 16 C8.05125 16.185625 7.1025 16.37125 6.125 16.5625 C3 17 3 17 1 16 C0.24572703 20.97906259 0.24572703 20.97906259 0 26 C-0.33 26.99 -0.66 27.98 -1 29 C-2.65 29.33 -4.3 29.66 -6 30 C-7.125 24.25 -7.125 24.25 -6 22 C-6.99 22 -7.98 22 -9 22 C-9 21.34 -9 20.68 -9 20 C-8.34 20 -7.68 20 -7 20 C-7 19.34 -7 18.68 -7 18 C-8.65 18 -10.3 18 -12 18 C-12.08961265 14.77394477 -11.90926253 12.09149261 -11 9 C-10.649375 7.7625 -10.29875 6.525 -9.9375 5.25 C-9.4734375 3.64125 -9.4734375 3.64125 -9 2 C-8.01 2.33 -7.02 2.66 -6 3 C-6 3.66 -6 4.32 -6 5 C-4.35 4.67 -2.7 4.34 -1 4 C-0.67 2.68 -0.34 1.36 0 0 Z " fill="#194B8C" transform="translate(200,171)"/>
<path d="M0 0 C0.66 0.66 1.32 1.32 2 2 C1.01 2 0.02 2 -1 2 C-0.67 1.34 -0.34 0.68 0 0 Z M-1 3 C-0.34 3.33 0.32 3.66 1 4 C1 4.99 1 5.98 1 7 C4.67735605 8.22578535 5.55066523 7.46596728 9 6 C12.09477914 6 15.10446346 6.23479256 18.1875 6.5 C19.27417969 6.5928125 20.36085938 6.685625 21.48046875 6.78125 C22.72763672 6.88953125 22.72763672 6.88953125 24 7 C24 7.66 24 8.32 24 9 C24.66 9 25.32 9 26 9 C26 8.34 26 7.68 26 7 C27.9375 7.3125 27.9375 7.3125 30 8 C30.495 9.485 30.495 9.485 31 11 C30.34 11 29.68 11 29 11 C29 11.66 29 12.32 29 13 C30.65 13 32.3 13 34 13 C34 13.33 34 13.66 34 14 C32.44033408 14.36644578 30.87707349 14.71760862 29.3125 15.0625 C28.44238281 15.25972656 27.57226562 15.45695312 26.67578125 15.66015625 C23.83998724 16.02032279 21.75210018 15.70909969 19 15 C19.66 13.68 20.32 12.36 21 11 C19.10820797 10.3185177 19.10820797 10.3185177 17 10 C16.34 10.66 15.68 11.32 15 12 C15.99 12.33 16.98 12.66 18 13 C18 13.66 18 14.32 18 15 C16.35 15 14.7 15 13 15 C13 13.68 13 12.36 13 11 C12.34 11.99 11.68 12.98 11 14 C8.375 14.1875 8.375 14.1875 6 14 C6 13.34 6 12.68 6 12 C5.34 12 4.68 12 4 12 C4.33 13.98 4.66 15.96 5 18 C2.30207034 18 0.17890855 17.69858029 -2.4375 17.125 C-3.19933594 16.96257812 -3.96117187 16.80015625 -4.74609375 16.6328125 C-7 16 -7 16 -9.03515625 14.9609375 C-11.13354359 13.93468842 -12.68555414 13.68081608 -15 13.5 C-18.06534873 13.18545862 -20.34188642 12.66132098 -23 11 C-23 10.34 -23 9.68 -23 9 C-19.11737466 7.17288219 -16.24372834 7 -12 7 C-9.69769234 6.10168984 -9.69769234 6.10168984 -8 5 C-8.33 6.32 -8.66 7.64 -9 9 C-6.94729537 7.15811388 -6.94729537 7.15811388 -6 5 C-5.67 5.33 -5.34 5.66 -5 6 C-4.67 5.34 -4.34 4.68 -4 4 C-3.01 3.67 -2.02 3.34 -1 3 Z " fill="#174988" transform="translate(245,356)"/>
<path d="M0 0 C2.08450717 0.2831556 4.16758367 0.57685669 6.25 0.875 C7.99023438 1.11863281 7.99023438 1.11863281 9.765625 1.3671875 C12.58193313 1.91820431 14.55217557 2.55796482 17 4 C17 4.66 17 5.32 17 6 C18.32 6 19.64 6 21 6 C21 6.66 21 7.32 21 8 C23.64 8.33 26.28 8.66 29 9 C28.67 10.32 28.34 11.64 28 13 C30.97 12.01 33.94 11.02 37 10 C37.79953138 13.28696233 38.09658936 14.71023192 37 18 C34.69 18 32.38 18 30 18 C29.505 16.02 29.505 16.02 29 14 C28.67 14.99 28.34 15.98 28 17 C24.61816784 16.59418014 21.47469514 16.162945 18.24609375 15.0546875 C14.60239892 13.87081553 10.95171445 13.15828941 7.1875 12.5 C5.77453011 12.24464595 4.36176764 11.98814143 2.94921875 11.73046875 C2.27294434 11.60720215 1.59666992 11.48393555 0.89990234 11.35693359 C-2.75673351 10.66996346 -6.37630173 9.84121567 -10 9 C-10 8.34 -10 7.68 -10 7 C-8.3745692 7.14095064 -6.74965949 7.28792087 -5.125 7.4375 C-4.22007812 7.51871094 -3.31515625 7.59992188 -2.3828125 7.68359375 C0 8 0 8 2 9 C2 8.34 2 7.68 2 7 C0.35 7 -1.3 7 -3 7 C-2.67 6.34 -2.34 5.68 -2 5 C-2.39938767 2.90178785 -2.39938767 2.90178785 -3 1 C-2.01 1.33 -1.02 1.66 0 2 C0 1.34 0 0.68 0 0 Z " fill="#174A8C" transform="translate(270,348)"/>
<path d="M0 0 C0.33 0 0.66 0 1 0 C1.33 2.64 1.66 5.28 2 8 C2.66 8 3.32 8 4 8 C4 8.66 4 9.32 4 10 C3.34 10 2.68 10 2 10 C2 10.66 2 11.32 2 12 C2.66 12 3.32 12 4 12 C4 13.98 4 15.96 4 18 C-12.12095243 19.84381836 -12.12095243 19.84381836 -18 17 C-19.5625 14.375 -19.5625 14.375 -20 12 C-17.62719599 9.26815328 -15.36453411 8.14671379 -12 6.875 C-11.13375 6.54242188 -10.2675 6.20984375 -9.375 5.8671875 C-7.5933571 5.21665341 -5.79936139 4.59978713 -4 4 C-4 3.34 -4 2.68 -4 2 C-2.68 2 -1.36 2 0 2 C0 1.34 0 0.68 0 0 Z " fill="#295896" transform="translate(170,382)"/>
<path d="M0 0 C0.66 0 1.32 0 2 0 C2.625 1.8125 2.625 1.8125 3 4 C2.01 5.485 2.01 5.485 1 7 C2.32 7.66 3.64 8.32 5 9 C5 9.66 5 10.32 5 11 C5.38929688 11.58265625 5.77859375 12.1653125 6.1796875 12.765625 C7 15 7 15 5.8828125 17.796875 C5.30273438 18.77140625 4.72265625 19.7459375 4.125 20.75 C3.55007812 21.73484375 2.97515625 22.7196875 2.3828125 23.734375 C1.92648438 24.48203125 1.47015625 25.2296875 1 26 C-0.65 25.67 -2.3 25.34 -4 25 C-4 23.68 -4 22.36 -4 21 C-4.66 21 -5.32 21 -6 21 C-6.28875 20.030625 -6.5775 19.06125 -6.875 18.0625 C-7.64214682 14.89335797 -7.64214682 14.89335797 -10 14 C-10 12.35 -10 10.7 -10 9 C-9.01 8.67 -8.02 8.34 -7 8 C-6.67 9.65 -6.34 11.3 -6 13 C-5.34 13 -4.68 13 -4 13 C-3.8453125 11.7315625 -3.8453125 11.7315625 -3.6875 10.4375 C-2.9171146 6.58557299 -1.63725486 3.55924969 0 0 Z M-4 19 C-3 21 -3 21 -3 21 Z " fill="#18498A" transform="translate(188,339)"/>
<path d="M0 0 C0.33 0.99 0.66 1.98 1 3 C2.32 3 3.64 3 5 3 C5.33 3.99 5.66 4.98 6 6 C8.31 6.33 10.62 6.66 13 7 C13 7.66 13 8.32 13 9 C10.69 9.33 8.38 9.66 6 10 C6 10.99 6 11.98 6 13 C4.68 12.67 3.36 12.34 2 12 C2 12.99 2 13.98 2 15 C2.62648438 15.02578125 3.25296875 15.0515625 3.8984375 15.078125 C5.12433594 15.16320312 5.12433594 15.16320312 6.375 15.25 C7.59316406 15.31960938 7.59316406 15.31960938 8.8359375 15.390625 C11 16 11 16 12.2890625 18.046875 C12.52367187 18.69140625 12.75828125 19.3359375 13 20 C12.34 20.33 11.68 20.66 11 21 C10.87625 21.804375 10.7525 22.60875 10.625 23.4375 C10 26 10 26 7.9375 27.3125 C7.298125 27.539375 6.65875 27.76625 6 28 C6 27.34 6 26.68 6 26 C6.66 25.67 7.32 25.34 8 25 C7.45276317 21.62537285 6.9451 19.91765 5 17 C3.35 17.33 1.7 17.66 0 18 C0 17.34 0 16.68 0 16 C-4.29 14.68 -8.58 13.36 -13 12 C-11.68 11.34 -10.36 10.68 -9 10 C-8.67 9.34 -8.34 8.68 -8 8 C-7.34 8.33 -6.68 8.66 -6 9 C-6.33 9.99 -6.66 10.98 -7 12 C-5.02 11.67 -3.04 11.34 -1 11 C-0.67 9.02 -0.34 7.04 0 5 C-1.11375 5.33 -2.2275 5.66 -3.375 6 C-7 7 -7 7 -9 7 C-9.33 5.35 -9.66 3.7 -10 2 C-6.3558226 -0.4294516 -4.28758728 -0.16179575 0 0 Z " fill="#1E5092" transform="translate(307,354)"/>
<path d="M0 0 C0.66 0.99 1.32 1.98 2 3 C0.68 3.33 -0.64 3.66 -2 4 C-1.34 5.98 -0.68 7.96 0 10 C0.66 9.34 1.32 8.68 2 8 C2 8.66 2 9.32 2 10 C2.99 10.33 3.98 10.66 5 11 C4.34 12.32 3.68 13.64 3 15 C1.68 14.34 0.36 13.68 -1 13 C-1.7306539 16.98677336 -1.7306539 16.98677336 -2 21 C-0.72780266 23.02977977 -0.72780266 23.02977977 1 24 C-0.32 25.65 -1.64 27.3 -3 29 C-3 28.34 -3 27.68 -3 27 C-3.99 27 -4.98 27 -6 27 C-6 25.68 -6 24.36 -6 23 C-6.99 25.475 -6.99 25.475 -8 28 C-10 27 -10 27 -11 24 C-10.34 24 -9.68 24 -9 24 C-8.77837671 22.37675914 -8.57310197 20.751279 -8.375 19.125 C-8.20097656 17.76761719 -8.20097656 17.76761719 -8.0234375 16.3828125 C-8.01570312 15.59648437 -8.00796875 14.81015625 -8 14 C-8.66 13.34 -9.32 12.68 -10 12 C-9.67 11.01 -9.34 10.02 -9 9 C-8.34 9 -7.68 9 -7 9 C-6.67 8.01 -6.34 7.02 -6 6 C-6.99 5.67 -7.98 5.34 -9 5 C-8.67 3.68 -8.34 2.36 -8 1 C-5.36 1.66 -2.72 2.32 0 3 C0 2.01 0 1.02 0 0 Z " fill="#194B8A" transform="translate(204,312)"/>
<path d="M0 0 C2 2 2 2 3 4 C3.66 4.33 4.32 4.66 5 5 C5.66 5.66 6.32 6.32 7 7 C8.32 5.68 9.64 4.36 11 3 C11.33 4.65 11.66 6.3 12 8 C11.01 8 10.02 8 9 8 C9.33 8.99 9.66 9.98 10 11 C9.01 11.99 8.02 12.98 7 14 C6.01 13.67 5.02 13.34 4 13 C2.2925002 14.28062485 0.62626404 15.61767557 -1 17 C-1.99 17.33 -2.98 17.66 -4 18 C-4 19.32 -4 20.64 -4 22 C-4.75 24.625 -4.75 24.625 -6 27 C-8.078125 28.1484375 -8.078125 28.1484375 -10 29 C-9.85866501 27.22880197 -9.71176792 25.45804713 -9.5625 23.6875 C-9.48128906 22.70136719 -9.40007812 21.71523438 -9.31640625 20.69921875 C-9 18 -9 18 -8 15 C-4.4375 13.8125 -4.4375 13.8125 -1 13 C-1.33 12.01 -1.66 11.02 -2 10 C-3.98 10.99 -3.98 10.99 -6 12 C-5.34 10.35 -4.68 8.7 -4 7 C-3.34 7 -2.68 7 -2 7 C-1.855625 6.21625 -1.71125 5.4325 -1.5625 4.625 C-1 2 -1 2 0 0 Z " fill="#184A89" transform="translate(195,355)"/>
<path d="M0 0 C1.98 0 3.96 0 6 0 C5.34 1.65 4.68 3.3 4 5 C5.32 4.67 6.64 4.34 8 4 C7.38461538 9.53846154 7.38461538 9.53846154 5.4375 11.875 C4.7259375 12.431875 4.7259375 12.431875 4 13 C3.67 11.68 3.34 10.36 3 9 C1.3528733 11.9772332 0.54365829 14.65848877 -0.0625 18 C-0.62150709 21.03065 -1.21996897 24.01793447 -2 27 C-2.66 27 -3.32 27 -4 27 C-4.33 25.35 -4.66 23.7 -5 22 C-5.99 22.33 -6.98 22.66 -8 23 C-7.690625 21.80375 -7.38125 20.6075 -7.0625 19.375 C-6.39565975 16.74960798 -5.89134619 14.25300509 -5.5 11.5625 C-5.335 10.716875 -5.17 9.87125 -5 9 C-4.34 8.67 -3.68 8.34 -3 8 C-2.09656316 6.11736119 -2.09656316 6.11736119 -1.375 3.9375 C-0.98441406 2.83728516 -0.98441406 2.83728516 -0.5859375 1.71484375 C-0.39257812 1.14894531 -0.19921875 0.58304687 0 0 Z " fill="#2B5E94" transform="translate(186,325)"/>
<path d="M0 0 C0.45375 0.66 0.9075 1.32 1.375 2 C1.91125 2.66 2.4475 3.32 3 4 C3.66 4 4.32 4 5 4 C4 7 4 7 2 9 C1.38898567 11.45530809 1.38898567 11.45530809 1 14.25 C0.32381764 18.33392676 -0.52950124 22.11368184 -2 26 C-0.35 26 1.3 26 3 26 C3 26.66 3 27.32 3 28 C2.34 28 1.68 28 1 28 C1 28.66 1 29.32 1 30 C1.99 30 2.98 30 4 30 C4 32.64 4 35.28 4 38 C5.485 37.505 5.485 37.505 7 37 C8 38 8 38 8.09765625 40.06640625 C8.08605469 40.89011719 8.07445312 41.71382812 8.0625 42.5625 C8.05347656 43.38878906 8.04445312 44.21507812 8.03515625 45.06640625 C8.02355469 45.70449219 8.01195312 46.34257812 8 47 C7.67 47 7.34 47 7 47 C6.67 45.02 6.34 43.04 6 41 C4.02 40.34 2.04 39.68 0 39 C-0.03738281 38.40832031 -0.07476562 37.81664062 -0.11328125 37.20703125 C-0.17902344 36.41683594 -0.24476563 35.62664062 -0.3125 34.8125 C-0.37050781 34.03519531 -0.42851562 33.25789063 -0.48828125 32.45703125 C-0.85970987 29.90227662 -0.85970987 29.90227662 -2.51953125 27.734375 C-4.57877155 23.93102881 -4.44073258 20.69185869 -4.375 16.4375 C-4.38660156 15.68275391 -4.39820313 14.92800781 -4.41015625 14.15039062 C-4.38697754 9.76575107 -4.02998794 7.21692807 -1 4 C-0.29485154 1.85266073 -0.29485154 1.85266073 0 0 Z " fill="#628AB6" transform="translate(190,163)"/>
<path d="M0 0 C0.66 0.33 1.32 0.66 2 1 C2.38133299 2.9914056 2.71325582 4.99279077 3 7 C3.33 7.66 3.66 8.32 4 9 C2.35 8.67 0.7 8.34 -1 8 C-1.33 8.99 -1.66 9.98 -2 11 C-0.68 11.33 0.64 11.66 2 12 C0.68 13.65 -0.64 15.3 -2 17 C-1.443125 17.99 -1.443125 17.99 -0.875 19 C0.36409128 23.24831296 -0.7187537 25.80035936 -2 30 C-2.66 30 -3.32 30 -4 30 C-4.33 31.98 -4.66 33.96 -5 36 C-5.66 36 -6.32 36 -7 36 C-7 35.01 -7 34.02 -7 33 C-9.33075929 33.95865509 -9.33075929 33.95865509 -11 37 C-10.56179109 32.44262737 -10.14958831 29.42346555 -7 26 C-6.67 27.65 -6.34 29.3 -6 31 C-5.01 28.36 -4.02 25.72 -3 23 C-4.32 23.33 -5.64 23.66 -7 24 C-6.34 22.35 -5.68 20.7 -5 19 C-6.65 19 -8.3 19 -10 19 C-8.25 14.125 -8.25 14.125 -6 13 C-5.31974363 11.00458132 -4.65509503 9.00382009 -4 7 C-3.0398183 5.31008021 -2.04644066 3.63790712 -1 2 C-0.67 1.34 -0.34 0.68 0 0 Z " fill="#326097" transform="translate(197,306)"/>
<path d="M0 0 C0.66 0.33 1.32 0.66 2 1 C4.0374763 1.22858114 6.08040303 1.41024278 8.125 1.5625 C9.76855469 1.68818359 9.76855469 1.68818359 11.4453125 1.81640625 C12.28835938 1.87699219 13.13140625 1.93757813 14 2 C14 2.66 14 3.32 14 4 C14.66 4 15.32 4 16 4 C16 3.34 16 2.68 16 2 C17.9375 2.3125 17.9375 2.3125 20 3 C20.33 3.99 20.66 4.98 21 6 C20.34 6 19.68 6 19 6 C19 6.66 19 7.32 19 8 C20.65 8 22.3 8 24 8 C24 8.33 24 8.66 24 9 C22.44033408 9.36644578 20.87707349 9.71760862 19.3125 10.0625 C18.44238281 10.25972656 17.57226562 10.45695312 16.67578125 10.66015625 C13.83998724 11.02032279 11.75210018 10.70909969 9 10 C9.66 8.68 10.32 7.36 11 6 C9.10820797 5.3185177 9.10820797 5.3185177 7 5 C6.34 5.66 5.68 6.32 5 7 C5.99 7.33 6.98 7.66 8 8 C8 8.66 8 9.32 8 10 C6.35 10 4.7 10 3 10 C3 8.68 3 7.36 3 6 C2.01 7.485 2.01 7.485 1 9 C-1.625 9.1875 -1.625 9.1875 -4 9 C-4 8.34 -4 7.68 -4 7 C-3.34 6.67 -2.68 6.34 -2 6 C-0.99983813 3.99967627 -0.50603992 2.16874252 0 0 Z " fill="#406FAB" transform="translate(255,361)"/>
<path d="M0 0 C2.31 0.33 4.62 0.66 7 1 C8 4 8 4 7.3125 6.4375 C7.209375 7.283125 7.10625 8.12875 7 9 C8.92710415 11.16683512 8.92710415 11.16683512 11 13 C3.94090922 11.87723429 -3.03843148 10.62436599 -10 9 C-10 8.34 -10 7.68 -10 7 C-8.3745692 7.14095064 -6.74965949 7.28792087 -5.125 7.4375 C-4.22007812 7.51871094 -3.31515625 7.59992188 -2.3828125 7.68359375 C0 8 0 8 2 9 C2 8.34 2 7.68 2 7 C0.35 7 -1.3 7 -3 7 C-2.67 6.34 -2.34 5.68 -2 5 C-2.39938767 2.90178785 -2.39938767 2.90178785 -3 1 C-2.01 1.33 -1.02 1.66 0 2 C0 1.34 0 0.68 0 0 Z " fill="#21518E" transform="translate(270,348)"/>
<path d="M0 0 C0.99 0.495 0.99 0.495 2 1 C2.05534912 2.28052246 2.11069824 3.56104492 2.16772461 4.88037109 C2.37550773 9.67021108 2.58699853 14.45988163 2.79956055 19.24951172 C2.89072809 21.31522311 2.98091488 23.38097805 3.07006836 25.44677734 C3.19902481 28.43078647 3.3316082 31.41461673 3.46484375 34.3984375 C3.50343002 35.30927094 3.5420163 36.22010437 3.58177185 37.15853882 C3.85300979 43.13192482 4.34520639 49.05653493 5 55 C4.34 55 3.68 55 3 55 C-1.6887711 37.5281324 -0.24579545 17.9128163 0 0 Z " fill="#466C9A" transform="translate(203,99)"/>
<path d="M0 0 C4.75 0.875 4.75 0.875 7 2 C7.33 1.34 7.66 0.68 8 0 C10.31 0 12.62 0 15 0 C15 0.66 15 1.32 15 2 C14.01 2 13.02 2 12 2 C11.67 2.66 11.34 3.32 11 4 C11.66 4 12.32 4 13 4 C13 4.99 13 5.98 13 7 C13.99 6.67 14.98 6.34 16 6 C16.33 5.01 16.66 4.02 17 3 C17.33 3 17.66 3 18 3 C18.33 4.98 18.66 6.96 19 9 C16.30207034 9 14.17890855 8.69858029 11.5625 8.125 C10.80066406 7.96257812 10.03882813 7.80015625 9.25390625 7.6328125 C7 7 7 7 4.96484375 5.95703125 C2.85359698 4.92869038 1.32746364 4.7125123 -1 4.5625 C-4.457336 4.2141863 -6.42759379 3.46522262 -9 1 C-7.35 1 -5.7 1 -4 1 C-4 1.66 -4 2.32 -4 3 C-2.68 2.67 -1.36 2.34 0 2 C0 1.34 0 0.68 0 0 Z " fill="#406DA0" transform="translate(231,365)"/>
<path d="M0 0 C4.39648465 1.16377535 7.00806185 3.42199681 9.83984375 6.84765625 C11.92901934 10.7235342 11.46384631 14.730896 11 19 C8.69 19.99 6.38 20.98 4 22 C4 21.34 4 20.68 4 20 C3.01 20 2.02 20 1 20 C1 19.34 1 18.68 1 18 C2.65 17.67 4.3 17.34 6 17 C6.33 15.68 6.66 14.36 7 13 C7.66 13 8.32 13 9 13 C9.33 12.34 9.66 11.68 10 11 C7.69 11 5.38 11 3 11 C2.87625 9.9275 2.7525 8.855 2.625 7.75 C2.10356064 4.62136385 1.59911746 2.66519576 0 0 Z " fill="#235494" transform="translate(262,160)"/>
<path d="M0 0 C2.35953094 2.35953094 2.49141413 3.77895617 3 7 C2.01 7.33 1.02 7.66 0 8 C1.32 8.66 2.64 9.32 4 10 C-0.40601683 14.01764453 -4.72887096 17.20307439 -10 20 C-10 18.68 -10 17.36 -10 16 C-9.34 16 -8.68 16 -8 16 C-8 15.01 -8 14.02 -8 13 C-7.34 13 -6.68 13 -6 13 C-6 12.34 -6 11.68 -6 11 C-5.34 10.34 -4.68 9.68 -4 9 C-4 8.34 -4 7.68 -4 7 C-3.34 7 -2.68 7 -2 7 C-2.3403125 6.1028125 -2.3403125 6.1028125 -2.6875 5.1875 C-2.790625 4.465625 -2.89375 3.74375 -3 3 C-1.5625 1.25 -1.5625 1.25 0 0 Z " fill="#1B4C8A" transform="translate(207,335)"/>
<path d="M0 0 C0.33 0 0.66 0 1 0 C1.02578125 0.62648438 1.0515625 1.25296875 1.078125 1.8984375 C1.13484375 2.71570313 1.1915625 3.53296875 1.25 4.375 C1.29640625 5.18710937 1.3428125 5.99921875 1.390625 6.8359375 C1.78073016 9.17948782 1.78073016 9.17948782 3.984375 10.1640625 C4.64953125 10.43992187 5.3146875 10.71578125 6 11 C6.33 11.66 6.66 12.32 7 13 C7.66 12.67 8.32 12.34 9 12 C9.33 12.99 9.66 13.98 10 15 C8.73299277 15.9841125 7.4612381 16.96211497 6.1875 17.9375 C5.47980469 18.48277344 4.77210938 19.02804687 4.04296875 19.58984375 C2 21 2 21 -1 22 C-1.11459026 14.58982977 -0.91160286 7.35793733 0 0 Z " fill="#3D699C" transform="translate(228,266)"/>
<path d="M0 0 C2 2 2 2 2.5 5.0625 C2.665 6.031875 2.83 7.00125 3 8 C3.66 8.33 4.32 8.66 5 9 C6.10546875 10.77734375 6.10546875 10.77734375 7.1875 12.9375 C7.55230469 13.64777344 7.91710937 14.35804688 8.29296875 15.08984375 C8.52628906 15.72019531 8.75960937 16.35054687 9 17 C8.67 17.66 8.34 18.32 8 19 C8.53625 18.814375 9.0725 18.62875 9.625 18.4375 C12.61990614 17.88580676 15.03745829 18.39402556 18 19 C18.33 19.99 18.66 20.98 19 22 C17.35 21.67 15.7 21.34 14 21 C14 21.66 14 22.32 14 23 C11.69 22.34 9.38 21.68 7 21 C6.979375 20.401875 6.95875 19.80375 6.9375 19.1875 C6.09543384 16.56685398 6.09543384 16.56685398 2.4375 15.25 C1.303125 14.8375 0.16875 14.425 -1 14 C-1 10.38970831 -0.03907418 7.44193324 1 4 C0.34 4 -0.32 4 -1 4 C-0.67 2.68 -0.34 1.36 0 0 Z " fill="#3A5F8E" transform="translate(210,181)"/>
<path d="M0 0 C2.6015625 0.0234375 2.6015625 0.0234375 5.625 0.375 C6.62789063 0.48585938 7.63078125 0.59671875 8.6640625 0.7109375 C9.82035156 0.85402344 9.82035156 0.85402344 11 1 C11 1.99 11 2.98 11 4 C11.99 4 12.98 4 14 4 C14 4.66 14 5.32 14 6 C8.29388118 7.43126901 3.31740985 6.51664858 -2.375 5.5625 C-3.76525391 5.34110352 -3.76525391 5.34110352 -5.18359375 5.11523438 C-7.45723235 4.75192099 -9.72909619 4.3799703 -12 4 C-12 3.67 -12 3.34 -12 3 C-10.95199219 2.92652344 -10.95199219 2.92652344 -9.8828125 2.8515625 C-8.97273437 2.77679688 -8.06265625 2.70203125 -7.125 2.625 C-6.22007812 2.55539062 -5.31515625 2.48578125 -4.3828125 2.4140625 C-1.82058097 2.20431868 -1.82058097 2.20431868 0 0 Z " fill="#376198" transform="translate(261,372)"/>
<path d="M0 0 C0.99 0.33 1.98 0.66 3 1 C2.67 1.99 2.34 2.98 2 4 C4.97 3.01 7.94 2.02 11 1 C11.79953138 4.28696233 12.09658936 5.71023192 11 9 C8.69 9 6.38 9 4 9 C3.67 7.68 3.34 6.36 3 5 C2.67 5.99 2.34 6.98 2 8 C-0.3431213 7.74438677 -2.67843403 7.40729228 -5 7 C-5.33 6.34 -5.66 5.68 -6 5 C-5.01 4.67 -4.02 4.34 -3 4 C-2.67 3.34 -2.34 2.68 -2 2 C-1.34 2 -0.68 2 0 2 C0 1.34 0 0.68 0 0 Z " fill="#174888" transform="translate(296,357)"/>
<path d="M0 0 C1.1087792 3.32633759 0.86099192 4.58520806 0.125 7.9375 C-0.05804688 8.79214844 -0.24109375 9.64679688 -0.4296875 10.52734375 C-0.92892373 12.69184056 -1.45069656 14.84772924 -2 17 C-2.66 17 -3.32 17 -4 17 C-4.33 15.35 -4.66 13.7 -5 12 C-5.99 12.33 -6.98 12.66 -8 13 C-5.77534247 3.46575342 -5.77534247 3.46575342 -4 1 C-1.875 0.25 -1.875 0.25 0 0 Z " fill="#2B588E" transform="translate(186,335)"/>
<path d="M0 0 C0.66 0.33 1.32 0.66 2 1 C1.67 1.99 1.34 2.98 1 4 C3.64 4 6.28 4 9 4 C9.33 4.99 9.66 5.98 10 7 C10.62648438 7.02578125 11.25296875 7.0515625 11.8984375 7.078125 C13.12433594 7.16320312 13.12433594 7.16320312 14.375 7.25 C15.18710937 7.29640625 15.99921875 7.3428125 16.8359375 7.390625 C19 8 19 8 20.2890625 10.046875 C20.52367187 10.69140625 20.75828125 11.3359375 21 12 C20.01 12.495 20.01 12.495 19 13 C18.87625 13.804375 18.7525 14.60875 18.625 15.4375 C18 18 18 18 15.9375 19.3125 C15.298125 19.539375 14.65875 19.76625 14 20 C14 19.34 14 18.68 14 18 C14.66 17.67 15.32 17.34 16 17 C15.45276317 13.62537285 14.9451 11.91765 13 9 C11.35 9.33 9.7 9.66 8 10 C8 9.34 8 8.68 8 8 C3.71 6.68 -0.58 5.36 -5 4 C-3.68 3.34 -2.36 2.68 -1 2 C-0.67 1.34 -0.34 0.68 0 0 Z " fill="#436FA8" transform="translate(299,362)"/>
<path d="M0 0 C5.29441695 -0.50423019 7.81413519 0.81076967 12 4 C11.01 4.33 10.02 4.66 9 5 C8.26676204 7.01508358 8.26676204 7.01508358 8 9 C7.34 9 6.68 9 6 9 C6.33 10.32 6.66 11.64 7 13 C4.26080344 11.99562793 3.19620453 11.37175596 1.8125 8.75 C0.95414062 5.84478363 0.4183899 2.99846098 0 0 Z " fill="#2D558B" transform="translate(213,214)"/>
<path d="M0 0 C0 1.65 0 3.3 0 5 C0.66 5 1.32 5 2 5 C2 5.66 2 6.32 2 7 C1.34 7 0.68 7 0 7 C0 10.3 0 13.6 0 17 C-0.66 16.34 -1.32 15.68 -2 15 C-1.79375 15.598125 -1.5875 16.19625 -1.375 16.8125 C-1 19 -1 19 -3 22 C-4.65 21.67 -6.3 21.34 -8 21 C-7.67 19.68 -7.34 18.36 -7 17 C-6.01 17 -5.02 17 -4 17 C-4.20625 16.443125 -4.4125 15.88625 -4.625 15.3125 C-5 13 -5 13 -4 10.5625 C-2.82932332 7.56264101 -3.12984403 6.0455459 -4 3 C-3.01 2.67 -2.02 2.34 -1 2 C-1.99 1.67 -2.98 1.34 -4 1 C-2 0 -2 0 0 0 Z " fill="#184889" transform="translate(280,240)"/>
<path d="M0 0 C0.33 0 0.66 0 1 0 C1.20140476 3.62528568 0.85776765 5.86501708 -1 9 C-1.66 9 -2.32 9 -3 9 C-3.33 9.99 -3.66 10.98 -4 12 C-6.3125 12.6875 -6.3125 12.6875 -9 13 C-10.75 12 -10.75 12 -12 10 C-12.6875 6.3125 -12.6875 6.3125 -13 3 C-12.34 2.67 -11.68 2.34 -11 2 C-11 4.31 -11 6.62 -11 9 C-10.34 9 -9.68 9 -9 9 C-9 8.01 -9 7.02 -9 6 C-8.195625 5.87625 -7.39125 5.7525 -6.5625 5.625 C-5.716875 5.41875 -4.87125 5.2125 -4 5 C-3.67 4.34 -3.34 3.68 -3 3 C-2.01 3.33 -1.02 3.66 0 4 C0 2.68 0 1.36 0 0 Z " fill="#1B4B8C" transform="translate(183,378)"/>
<path d="M0 0 C0.66 0.33 1.32 0.66 2 1 C1.34 2.65 0.68 4.3 0 6 C-1.32 6 -2.64 6 -4 6 C-4 6.66 -4 7.32 -4 8 C2.93 8.495 2.93 8.495 10 9 C10 9.33 10 9.66 10 10 C4.06 10.33 -1.88 10.66 -8 11 C-8 9.35 -8 7.7 -8 6 C-8.66 6 -9.32 6 -10 6 C-10 5.34 -10 4.68 -10 4 C-8.906875 3.896875 -7.81375 3.79375 -6.6875 3.6875 C-3.14440371 3.02692273 -2.06756277 2.7972908 0 0 Z " fill="#1E4C89" transform="translate(182,388)"/>
<path d="M0 0 C2.45234885 0.98093954 3.7809268 1.68703828 5.3125 3.875 C6.1132654 6.35009306 5.86325845 7.58287634 5 10 C4.34 10 3.68 10 3 10 C3 10.66 3 11.32 3 12 C-1.75 11.125 -1.75 11.125 -4 10 C-3.67 8.02 -3.34 6.04 -3 4 C-2.01 4 -1.02 4 0 4 C0 2.68 0 1.36 0 0 Z M-2 7 C-1.67 7.66 -1.34 8.32 -1 9 C-0.67 8.34 -0.34 7.68 0 7 C-0.66 7 -1.32 7 -2 7 Z " fill="#1A4B8A" transform="translate(310,370)"/>
<path d="M0 0 C2.73625437 1.47336774 3.38708421 2.44772966 4.4375 5.3125 C3.32375 5.2196875 3.32375 5.2196875 2.1875 5.125 C-1.05569223 5.34612674 -2.04757049 6.38438738 -4.5625 8.3125 C-5.5525 7.9825 -6.5425 7.6525 -7.5625 7.3125 C-7.5625 6.6525 -7.5625 5.9925 -7.5625 5.3125 C-8.2225 4.9825 -8.8825 4.6525 -9.5625 4.3125 C-4.41910377 -1.18561321 -4.41910377 -1.18561321 0 0 Z " fill="#26548F" transform="translate(211.5625,295.6875)"/>
<path d="M0 0 C0.33 0.66 0.66 1.32 1 2 C1.66 2 2.32 2 3 2 C3.09050909 7.70207276 2.79046793 13.21355638 2.125 18.875 C2.04636719 19.63296875 1.96773437 20.3909375 1.88671875 21.171875 C1.24045838 26.75954162 1.24045838 26.75954162 -1 29 C-1.11624638 20.26860536 -0.89115181 11.68873018 0 3 C-1.32 2.34 -2.64 1.68 -4 1 C-2.68 0.67 -1.36 0.34 0 0 Z " fill="#456892" transform="translate(231,228)"/>
<path d="M0 0 C0.28875 0.639375 0.5775 1.27875 0.875 1.9375 C1.82823451 4.15206079 1.82823451 4.15206079 4 5 C3.67 6.98 3.34 8.96 3 11 C2.67 10.34 2.34 9.68 2 9 C1.34 10.65 0.68 12.3 0 14 C-0.66 14 -1.32 14 -2 14 C-2.12375 14.825 -2.2475 15.65 -2.375 16.5 C-3.07102155 20.39772067 -4.00880949 24.16739669 -5 28 C-5.66 27.67 -6.32 27.34 -7 27 C-4.76819645 17.97082523 -2.50525868 8.95819769 0 0 Z " fill="#4E73A0" transform="translate(177,348)"/>
<path d="M0 0 C0.66 0 1.32 0 2 0 C2.33 0.99 2.66 1.98 3 3 C4.65 3 6.3 3 8 3 C7.979375 3.928125 7.95875 4.85625 7.9375 5.8125 C7.84230396 9.02286011 7.84230396 9.02286011 9 12 C6.36 12.66 3.72 13.32 1 14 C-1 11 -1 11 -1 8 C1.4375 8.375 1.4375 8.375 4 9 C4.33 9.66 4.66 10.32 5 11 C5 10.01 5 9.02 5 8 C3.7625 7.319375 3.7625 7.319375 2.5 6.625 C1.675 6.08875 0.85 5.5525 0 5 C-0.3125 2.3125 -0.3125 2.3125 0 0 Z M4 4 C4.99 5.32 5.98 6.64 7 8 C7 6.68 7 5.36 7 4 C6.01 4 5.02 4 4 4 Z " fill="#537BAC" transform="translate(229,184)"/>
<path d="M0 0 C0.33 0.99 0.66 1.98 1 3 C0.401875 3.144375 -0.19625 3.28875 -0.8125 3.4375 C-3.89029562 4.22893316 -5.71542726 4.71542726 -8 7 C-10.68839385 7.26991906 -13.29141936 7.08737357 -16 7 C-16.33 6.01 -16.66 5.02 -17 4 C-16.34 3.67 -15.68 3.34 -15 3 C-15 3.66 -15 4.32 -15 5 C-14.01 5 -13.02 5 -12 5 C-12 4.01 -12 3.02 -12 2 C-7.8803623 0.70756464 -4.33168317 -0.26252625 0 0 Z " fill="#174C89" transform="translate(325,362)"/>
<path d="M0 0 C0.45375 0.66 0.9075 1.32 1.375 2 C1.91125 2.66 2.4475 3.32 3 4 C3.66 4 4.32 4 5 4 C4 7 4 7 2 9 C1.71125 9.825 1.4225 10.65 1.125 11.5 C0 14 0 14 -2.125 15.3125 C-3.053125 15.6528125 -3.053125 15.6528125 -4 16 C-4.40909091 7.81818182 -4.40909091 7.81818182 -1 4 C-0.29485154 1.85266073 -0.29485154 1.85266073 0 0 Z " fill="#3C618A" transform="translate(190,163)"/>
<path d="M0 0 C2.49118953 3.7367843 2.2065226 5.74451819 2.125 10.1875 C2.10695312 11.45980469 2.08890625 12.73210937 2.0703125 14.04296875 C2.04710937 15.01878906 2.02390625 15.99460937 2 17 C1.34 17 0.68 17 0 17 C-0.33 12.71 -0.66 8.42 -1 4 C-2.93875 3.690625 -4.8775 3.38125 -6.875 3.0625 C-12.75 2.125 -12.75 2.125 -15 1 C-9.98583234 -1.18566282 -5.25041925 -1.56462494 0 0 Z " fill="#41658E" transform="translate(202,81)"/>
<path d="M0 0 C2.1875 0.3125 2.1875 0.3125 4 1 C3.01 1.66 2.02 2.32 1 3 C0.67 3.99 0.34 4.98 0 6 C6.72925934 7.45497499 14.33322678 7.9718625 21 6 C21 6.99 21 7.98 21 9 C4.87904757 10.84381836 4.87904757 10.84381836 -1 8 C-2.5625 5.375 -2.5625 5.375 -3 3 C-1.75 1.4375 -1.75 1.4375 0 0 Z " fill="#51739E" transform="translate(153,391)"/>
<path d="M0 0 C1.9375 0.3125 1.9375 0.3125 4 1 C4.33 1.99 4.66 2.98 5 4 C4.34 4 3.68 4 3 4 C3 4.66 3 5.32 3 6 C4.65 6 6.3 6 8 6 C8 6.33 8 6.66 8 7 C6.44033408 7.36644578 4.87707349 7.71760862 3.3125 8.0625 C2.44238281 8.25972656 1.57226562 8.45695312 0.67578125 8.66015625 C-2.16001276 9.02032279 -4.24789982 8.70909969 -7 8 C-6.67 7.38125 -6.34 6.7625 -6 6.125 C-4.85806765 4.08981656 -4.85806765 4.08981656 -5 2 C-3.35 2 -1.7 2 0 2 C0 1.34 0 0.68 0 0 Z " fill="#30609D" transform="translate(271,363)"/>
<path d="M0 0 C2.475 0.495 2.475 0.495 5 1 C5 1.66 5 2.32 5 3 C6.32 3 7.64 3 9 3 C9 3.66 9 4.32 9 5 C10.65 5.33 12.3 5.66 14 6 C14 6.66 14 7.32 14 8 C13.34 8 12.68 8 12 8 C11.67 8.99 11.34 9.98 11 11 C9.0625 10.6875 9.0625 10.6875 7 10 C6.67 9.01 6.34 8.02 6 7 C5.34 6.67 4.68 6.34 4 6 C4 5.34 4 4.68 4 4 C2.68 3.67 1.36 3.34 0 3 C0 2.01 0 1.02 0 0 Z " fill="#316093" transform="translate(282,351)"/>
<path d="M0 0 C0.33 0 0.66 0 1 0 C1 7.59 1 15.18 1 23 C-0.32 22.67 -1.64 22.34 -3 22 C-3 21.34 -3 20.68 -3 20 C-3.66 20 -4.32 20 -5 20 C-4.67 18.35 -4.34 16.7 -4 15 C-3.34 15 -2.68 15 -2 15 C-2.33 12.03 -2.66 9.06 -3 6 C-2.34 6.33 -1.68 6.66 -1 7 C-0.67 4.69 -0.34 2.38 0 0 Z " fill="#355FA0" transform="translate(280,247)"/>
<path d="M0 0 C0.33 0.66 0.66 1.32 1 2 C1.99 2.33 2.98 2.66 4 3 C5.1875 5.0625 5.1875 5.0625 6 7 C5.34 7 4.68 7 4 7 C3.67 7.99 3.34 8.98 3 10 C1.1875 10.5625 1.1875 10.5625 -1 11 C-1.99 11.556875 -1.99 11.556875 -3 12.125 C-5.43938807 13.19223228 -6.54098346 12.87822019 -9 12 C-9 11.34 -9 10.68 -9 10 C-9.66 10 -10.32 10 -11 10 C-10.67 9.01 -10.34 8.02 -10 7 C-9.67 7.66 -9.34 8.32 -9 9 C-5.97065509 9.65772428 -5.97065509 9.65772428 -3 10 C-2.67 9.01 -2.34 8.02 -2 7 C-1.01 7 -0.02 7 1 7 C0.34 5.02 -0.32 3.04 -1 1 C-0.67 0.67 -0.34 0.34 0 0 Z " fill="#154888" transform="translate(249,182)"/>
<path d="M0 0 C1.32 0 2.64 0 4 0 C3.34 2.31 2.68 4.62 2 7 C2.66 7.66 3.32 8.32 4 9 C3.01 9.66 2.02 10.32 1 11 C1.99 12.485 1.99 12.485 3 14 C1.68 14 0.36 14 -1 14 C-3 12 -3 12 -3.3125 9.25 C-2.9586728 5.57019712 -1.82157417 3.18775479 0 0 Z " fill="#426999" transform="translate(218,350)"/>
<path d="M0 0 C0.99 0 1.98 0 3 0 C4.12025107 3.33027019 3.89423549 5.36541892 2.8125 8.6875 C2.57144531 9.47511719 2.33039063 10.26273437 2.08203125 11.07421875 C1 13 1 13 -1.11328125 13.76953125 C-1.73589844 13.84558594 -2.35851562 13.92164063 -3 14 C-3.1953125 7.9453125 -3.1953125 7.9453125 -3 6 C-2.34 5.34 -1.68 4.68 -1 4 C-0.3574765 1.93125966 -0.3574765 1.93125966 0 0 Z " fill="#345B92" transform="translate(327,363)"/>
<path d="M0 0 C9.59453303 0.59453303 9.59453303 0.59453303 13 4 C12.67 4.66 12.34 5.32 12 6 C9.125 6.75 9.125 6.75 6 7 C5.01 6.34 4.02 5.68 3 5 C3.99 4.34 4.98 3.68 6 3 C4.02 2.34 2.04 1.68 0 1 C0 0.67 0 0.34 0 0 Z M5 7 C5.66 7.99 6.32 8.98 7 10 C4.35541621 11.32229189 2.32238699 11.09677194 -0.625 11.0625 C-1.62789063 11.05347656 -2.63078125 11.04445313 -3.6640625 11.03515625 C-4.43492187 11.02355469 -5.20578125 11.01195312 -6 11 C-6 10.67 -6 10.34 -6 10 C-2.7 10 0.6 10 4 10 C4.33 9.01 4.66 8.02 5 7 Z " fill="#4A7BB6" transform="translate(281,361)"/>
<path d="M0 0 C1.27351308 2.54702616 0.80191925 3.4282945 0.0625 6.125 C-0.13214844 6.84945313 -0.32679688 7.57390625 -0.52734375 8.3203125 C-0.68332031 8.87460937 -0.83929688 9.42890625 -1 10 C-1.66 10 -2.32 10 -3 10 C-3.33 11.98 -3.66 13.96 -4 16 C-4.66 16 -5.32 16 -6 16 C-6 15.01 -6 14.02 -6 13 C-8.33075929 13.95865509 -8.33075929 13.95865509 -10 17 C-9.56179109 12.44262737 -9.14958831 9.42346555 -6 6 C-5.67 7.65 -5.34 9.3 -5 11 C-4.58427734 9.93458984 -4.58427734 9.93458984 -4.16015625 8.84765625 C-3.79792969 7.92855469 -3.43570313 7.00945312 -3.0625 6.0625 C-2.70285156 5.14597656 -2.34320313 4.22945313 -1.97265625 3.28515625 C-1 1 -1 1 0 0 Z " fill="#5885BC" transform="translate(196,326)"/>
<path d="M0 0 C0.33 1.32 0.66 2.64 1 4 C0.01 4.495 0.01 4.495 -1 5 C-1 5.99 -1 6.98 -1 8 C-0.01 7.34 0.98 6.68 2 6 C2.33 7.65 2.66 9.3 3 11 C1.88625 11.28875 0.7725 11.5775 -0.375 11.875 C-4.00291092 12.69241329 -4.00291092 12.69241329 -6 15 C-5.61471495 8.83543922 -3.52913975 5.01372252 0 0 Z " fill="#4774AE" transform="translate(192,358)"/>
<path d="M0 0 C0.33 0.99 0.66 1.98 1 3 C2.15628906 2.98259766 2.15628906 2.98259766 3.3359375 2.96484375 C4.33882813 2.95582031 5.34171875 2.94679688 6.375 2.9375 C7.37273437 2.92589844 8.37046875 2.91429687 9.3984375 2.90234375 C12 3 12 3 14 4 C14.33 3.34 14.66 2.68 15 2 C15.99 2.66 16.98 3.32 18 4 C14.57375115 6.08554278 11.85089184 6.26953755 7.875 6.25 C6.82054687 6.25515625 5.76609375 6.2603125 4.6796875 6.265625 C2 6 2 6 0 4 C0 2.68 0 1.36 0 0 Z " fill="#426695" transform="translate(297,393)"/>
<path d="M0 0 C3.7758544 0.52442422 6.22372155 1.32654667 9 4 C9 4.99 9 5.98 9 7 C7.7625 6.5359375 7.7625 6.5359375 6.5 6.0625 C3.75814592 5.23015144 1.668733 4.81362207 -1.125 4.5625 C-4.85489834 4.02106314 -6.34072031 3.54847637 -9 1 C-7.35 1 -5.7 1 -4 1 C-4 1.66 -4 2.32 -4 3 C-2.68 2.67 -1.36 2.34 0 2 C0 1.34 0 0.68 0 0 Z " fill="#4C71A3" transform="translate(231,365)"/>
<path d="M0 0 C1.875 0.25 1.875 0.25 4 1 C5.72101535 3.58152302 6 4.84918025 6 8 C6.99 8 7.98 8 9 8 C9 10.31 9 12.62 9 15 C8.34 15 7.68 15 7 15 C5.5 12.75 5.5 12.75 4 10 C3.608125 9.319375 3.21625 8.63875 2.8125 7.9375 C2 6 2 6 2 2 C1.34 2 0.68 2 0 2 C0 1.34 0 0.68 0 0 Z " fill="#32659E" transform="translate(230,332)"/>
<path d="M0 0 C4.95 0 9.9 0 15 0 C14.67 0.99 14.34 1.98 14 3 C14.66 3.33 15.32 3.66 16 4 C12.62182575 4.84454356 10.32534757 5.10844919 7 4 C7 3.01 7 2.02 7 1 C5.02 1.99 5.02 1.99 3 3 C3 2.34 3 1.68 3 1 C2.01 1.33 1.02 1.66 0 2 C0 1.34 0 0.68 0 0 Z " fill="#184B88" transform="translate(229,203)"/>
<path d="M0 0 C0.33 1.32 0.66 2.64 1 4 C-2.92857754 5.85131483 -5.98775112 6.22004943 -10.3125 6.125 C-11.38113281 6.10695313 -12.44976562 6.08890625 -13.55078125 6.0703125 C-14.35902344 6.04710937 -15.16726562 6.02390625 -16 6 C-16.33 5.34 -16.66 4.68 -17 4 C-13.37 4 -9.74 4 -6 4 C-5.67 3.34 -5.34 2.68 -5 2 C-4.01 2.33 -3.02 2.66 -2 3 C-2 2.34 -2 1.68 -2 1 C-1.34 0.67 -0.68 0.34 0 0 Z " fill="#577AA6" transform="translate(198,394)"/>
<path d="M0 0 C0 1.32 0 2.64 0 4 C-0.99 4 -1.98 4 -3 4 C-3 5.32 -3 6.64 -3 8 C-4.32 8 -5.64 8 -7 8 C-7 7.34 -7 6.68 -7 6 C-8.32 6 -9.64 6 -11 6 C-10 3 -10 3 -7 1 C-4.605208 0.41590439 -2.46475374 0 0 0 Z " fill="#577FAA" transform="translate(239,176)"/>
<path d="M0 0 C0 3.98919362 -1.17179136 6.46966608 -3 10 C-5.5625 11.875 -5.5625 11.875 -8 13 C-8.99 13.495 -8.99 13.495 -10 14 C-10 13.34 -10 12.68 -10 12 C-11.32 11.67 -12.64 11.34 -14 11 C-13.13375 11 -12.2675 11 -11.375 11 C-6.98299035 9.69866381 -5.79102386 7.60444663 -3.296875 3.91015625 C-2 2 -2 2 0 0 Z " fill="#4A74A0" transform="translate(245,159)"/>
<path d="M0 0 C3.4375 1.25 3.4375 1.25 7 3 C7.9375 5.1875 7.9375 5.1875 8 7 C4.71303767 7.79953138 3.28976808 8.09658936 0 7 C-1.17755913 4.05610218 -1.03348696 3.10046087 0 0 Z " fill="#3D639F" transform="translate(202,167)"/>
<path d="M0 0 C0.66 0 1.32 0 2 0 C2.33 1.98 2.66 3.96 3 6 C3.99 5.67 4.98 5.34 6 5 C7 6 7 6 7.09765625 8.06640625 C7.08605469 8.89011719 7.07445312 9.71382812 7.0625 10.5625 C7.05347656 11.38878906 7.04445312 12.21507812 7.03515625 13.06640625 C7.02355469 13.70449219 7.01195312 14.34257812 7 15 C6.67 15 6.34 15 6 15 C5.67 13.02 5.34 11.04 5 9 C3.02 8.34 1.04 7.68 -1 7 C-0.67 4.69 -0.34 2.38 0 0 Z " fill="#3A5F8C" transform="translate(191,195)"/>
<path d="M0 0 C0.99 0 1.98 0 3 0 C3.66 0.99 4.32 1.98 5 3 C5.66 2.34 6.32 1.68 7 1 C6.34 3.97 5.68 6.94 5 10 C4.34 10 3.68 10 3 10 C2.67 8.35 2.34 6.7 2 5 C1.01 5.33 0.02 5.66 -1 6 C-0.67 4.02 -0.34 2.04 0 0 Z " fill="#406EAB" transform="translate(179,342)"/>
<path d="M0 0 C2.31 0 4.62 0 7 0 C6.34 2.31 5.68 4.62 5 7 C5.66 7 6.32 7 7 7 C6.67 8.32 6.34 9.64 6 11 C3.525 10.01 3.525 10.01 1 9 C1.20625 8.443125 1.4125 7.88625 1.625 7.3125 C2.10695211 4.340462 1.26565028 2.68020059 0 0 Z " fill="#336B9B" transform="translate(258,335)"/>
<path d="M0 0 C2.9375 0.8125 2.9375 0.8125 6 2 C6.33 2.99 6.66 3.98 7 5 C2.87831311 6.62950412 0.29299643 7.26264601 -4 6 C-3.34 5.67 -2.68 5.34 -2 5 C-1.34 5.33 -0.68 5.66 0 6 C-0.2784375 4.7934375 -0.2784375 4.7934375 -0.5625 3.5625 C-0.706875 2.716875 -0.85125 1.87125 -1 1 C-0.67 0.67 -0.34 0.34 0 0 Z " fill="#2E5C98" transform="translate(241,193)"/>
<path d="M0 0 C1.32 0.66 2.64 1.32 4 2 C3.34 2 2.68 2 2 2 C3.01160848 6.39314793 3.01160848 6.39314793 6.125 9.375 C6.74375 9.58125 7.3625 9.7875 8 10 C7.67 11.32 7.34 12.64 7 14 C6.34 13.01 5.68 12.02 5 11 C4.154375 10.67 3.30875 10.34 2.4375 10 C1.633125 9.67 0.82875 9.34 0 9 C-1.15941038 5.52176885 -0.70820884 3.54104422 0 0 Z " fill="#436990" transform="translate(227,182)"/>
<path d="M0 0 C1.32 0.66 2.64 1.32 4 2 C3.54177532 5.46941546 3.10868317 8.67395049 2 12 C1.34 12 0.68 12 0 12 C0 11.34 0 10.68 0 10 C-0.66 10 -1.32 10 -2 10 C-2 9.34 -2 8.68 -2 8 C-1.34 8 -0.68 8 0 8 C0.79953138 4.71303767 1.09658936 3.28976808 0 0 Z " fill="#1B4B8A" transform="translate(209,347)"/>
<path d="M0 0 C4.60470588 1.45411765 4.60470588 1.45411765 6.3125 3.8125 C7.09802451 6.31189617 7.14472595 8.39493282 7 11 C5.68 10.67 4.36 10.34 3 10 C2.690625 8.906875 2.38125 7.81375 2.0625 6.6875 C1.41662103 4.44592006 0.7376883 2.2130649 0 0 Z " fill="#365C99" transform="translate(262,160)"/>
<path d="M0 0 C7.60154046 0.32978484 13.97319219 2.12782571 21 5 C17.44206755 6.18597748 16.27337948 5.69776079 12.75 4.625 C8.47601044 3.38196718 4.41853764 2.49094863 0 2 C0 1.34 0 0.68 0 0 Z " fill="#5084BB" transform="translate(260,355)"/>
<path d="M0 0 C0.66 0.33 1.32 0.66 2 1 C2.625 3.5625 2.625 3.5625 3 6 C1.865625 6.12375 0.73125 6.2475 -0.4375 6.375 C-2.2009375 6.684375 -2.2009375 6.684375 -4 7 C-4.33 7.66 -4.66 8.32 -5 9 C-5 7.02 -5 5.04 -5 3 C-5.66 2.67 -6.32 2.34 -7 2 C-6.01 2 -5.02 2 -4 2 C-4 2.66 -4 3.32 -4 4 C-2.68 4 -1.36 4 0 4 C0 2.68 0 1.36 0 0 Z " fill="#194884" transform="translate(236,180)"/>
<path d="M0 0 C0.99 0.495 0.99 0.495 2 1 C1.01 1.495 1.01 1.495 0 2 C0 1.34 0 0.68 0 0 Z M-3 1 C-2.01 1.33 -1.02 1.66 0 2 C0 2.66 0 3.32 0 4 C1.65 4.33 3.3 4.66 5 5 C2.79765548 5.57097821 0.6110702 6.07408187 -1.625 6.5 C-4.00287908 6.89587313 -4.00287908 6.89587313 -6 8 C-6.33 7.34 -6.66 6.68 -7 6 C-7.99 6 -8.98 6 -10 6 C-10 5.34 -10 4.68 -10 4 C-8.5459375 3.814375 -8.5459375 3.814375 -7.0625 3.625 C-5.5465625 3.315625 -5.5465625 3.315625 -4 3 C-3.67 2.34 -3.34 1.68 -3 1 Z " fill="#4B77A5" transform="translate(308,377)"/>
<path d="M0 0 C0.66 0.33 1.32 0.66 2 1 C2 2.32 2 3.64 2 5 C1.34 5 0.68 5 0 5 C0.33 5.99 0.66 6.98 1 8 C0.01 8.33 -0.98 8.66 -2 9 C-2 9.66 -2 10.32 -2 11 C-2.66 11 -3.32 11 -4 11 C-4 11.99 -4 12.98 -4 14 C-4.66 13.67 -5.32 13.34 -6 13 C-4.02 8.71 -2.04 4.42 0 0 Z " fill="#5983B8" transform="translate(203,337)"/>
<path d="M0 0 C0.99 0.33 1.98 0.66 3 1 C3 1.99 3 2.98 3 4 C-2.14285714 8 -2.14285714 8 -6 8 C-4.55746343 4.63408134 -2.66735273 2.48952921 0 0 Z " fill="#466F9A" transform="translate(228,288)"/>
<path d="M0 0 C0.66 0 1.32 0 2 0 C4 5.625 4 5.625 4 9 C3.01 9 2.02 9 1 9 C0.67 8.01 0.34 7.02 0 6 C-2.01508358 5.26676204 -2.01508358 5.26676204 -4 5 C-3.01 4.67 -2.02 4.34 -1 4 C-0.26676204 1.98491642 -0.26676204 1.98491642 0 0 Z " fill="#3B6AA6" transform="translate(267,266)"/>
<path d="M0 0 C0.99 0.33 1.98 0.66 3 1 C2.95875 1.78375 2.9175 2.5675 2.875 3.375 C2.71271266 6.16116119 2.71271266 6.16116119 5 8 C4.01 8.99 3.02 9.98 2 11 C-0.7865517 8.2134483 -0.65662895 5.84575573 -1 2 C-0.67 1.34 -0.34 0.68 0 0 Z " fill="#255894" transform="translate(322,370)"/>
<path d="M0 0 C3.48539917 0.64544429 6.02819057 2.10134397 9 4 C8.34 5.65 7.68 7.3 7 9 C5.2925002 7.71937515 3.62626404 6.38232443 2 5 C2 4.34 2 3.68 2 3 C1.34 2.67 0.68 2.34 0 2 C0 1.34 0 0.68 0 0 Z " fill="#225593" transform="translate(189,344)"/>
<path d="M0 0 C1.39195915 4.17587745 -0.17676781 6.13474776 -2 10 C-2.33 9.01 -2.66 8.02 -3 7 C-5.01508358 6.26676204 -5.01508358 6.26676204 -7 6 C-6.34 4.68 -5.68 3.36 -5 2 C-2 3 -2 3 -1 4 C-0.67 2.68 -0.34 1.36 0 0 Z " fill="#3E6BA8" transform="translate(208,323)"/>
<path d="M0 0 C0.66 0.33 1.32 0.66 2 1 C1.67 2.98 1.34 4.96 1 7 C-0.65 7 -2.3 7 -4 7 C-4.33 7.99 -4.66 8.98 -5 10 C-5.66 10 -6.32 10 -7 10 C-7.1875 7.625 -7.1875 7.625 -7 5 C-6.01 4.34 -5.02 3.68 -4 3 C-3.67 3.99 -3.34 4.98 -3 6 C-2.34 5.67 -1.68 5.34 -1 5 C-0.34444881 2.47266765 -0.34444881 2.47266765 0 0 Z " fill="#4774A9" transform="translate(269,189)"/>
<path d="M0 0 C2.43486607 2.43486607 2.44209813 3.57425106 2.8125 6.9375 C2.92207031 7.81277344 3.03164062 8.68804687 3.14453125 9.58984375 C3 12 3 12 1.51171875 13.81640625 C1.01285156 14.20699219 0.51398438 14.59757813 0 15 C-0.66 14.01 -1.32 13.02 -2 12 C-1.34 11.01 -0.68 10.02 0 9 C0.38499891 7.34450469 0.72793135 5.6777567 1 4 C0.34 4 -0.32 4 -1 4 C-0.67 2.68 -0.34 1.36 0 0 Z " fill="#3B6DA3" transform="translate(210,181)"/>
<path d="M0 0 C-0.6875 2.4375 -0.6875 2.4375 -2 5 C-4.625 5.8125 -4.625 5.8125 -7 6 C-7 5.34 -7 4.68 -7 4 C-7.99 3.67 -8.98 3.34 -10 3 C-9 1 -9 1 -7.25 0.375 C-4.79549443 -0.03408426 -2.4840589 -0.06900164 0 0 Z " fill="#124087" transform="translate(235,346)"/>
<path d="M0 0 C1.1171875 1.734375 1.1171875 1.734375 2 4 C1.3203125 6.140625 1.3203125 6.140625 0.125 8.25 C-0.26429688 8.95640625 -0.65359375 9.6628125 -1.0546875 10.390625 C-1.36664063 10.92171875 -1.67859375 11.4528125 -2 12 C-3.32 12 -4.64 12 -6 12 C-5.44928492 8.14499441 -3.68606223 6.68606223 -1 4 C-0.2127322 1.8618034 -0.2127322 1.8618034 0 0 Z " fill="#164985" transform="translate(245,257)"/>
<path d="M0 0 C0.66 0 1.32 0 2 0 C2.33 0.99 2.66 1.98 3 3 C4.65 3 6.3 3 8 3 C8 4.98 8 6.96 8 9 C2.25 7.25 2.25 7.25 0 5 C-0.125 2.375 -0.125 2.375 0 0 Z M4 4 C4.99 5.32 5.98 6.64 7 8 C7 6.68 7 5.36 7 4 C6.01 4 5.02 4 4 4 Z " fill="#739ACA" transform="translate(229,184)"/>
<path d="M0 0 C0.99 0 1.98 0 3 0 C3.65234375 1.734375 3.65234375 1.734375 4 4 C3.00390625 6.140625 3.00390625 6.140625 1.5625 8.25 C1.08941406 8.95640625 0.61632812 9.6628125 0.12890625 10.390625 C-0.24363281 10.92171875 -0.61617187 11.4528125 -1 12 C-1.5534764 9.92446352 -2 8.15634036 -2 6 C-1.01 6 -0.02 6 1 6 C1 5.34 1 4.68 1 4 C0.34 3.67 -0.32 3.34 -1 3 C-0.67 2.01 -0.34 1.02 0 0 Z " fill="#3C6EA8" transform="translate(206,357)"/>
<path d="M0 0 C0.0825 0.61875 0.165 1.2375 0.25 1.875 C0.81258459 4.18437567 0.81258459 4.18437567 3.0625 5.25 C3.701875 5.4975 4.34125 5.745 5 6 C3.3545622 7.68762851 1.68711423 9.3540349 0 11 C-0.33 11 -0.66 11 -1 11 C-1.02688151 9.35425434 -1.04634123 7.70838587 -1.0625 6.0625 C-1.07410156 5.14597656 -1.08570313 4.22945313 -1.09765625 3.28515625 C-1 1 -1 1 0 0 Z " fill="#1F4A82" transform="translate(230,264)"/>
<path d="M0 0 C0.33 0.66 0.66 1.32 1 2 C1.53625 1.814375 2.0725 1.62875 2.625 1.4375 C5.61990614 0.88580676 8.03745829 1.39402556 11 2 C11.33 2.99 11.66 3.98 12 5 C10.35 4.67 8.7 4.34 7 4 C7 4.66 7 5.32 7 6 C4.69 5.34 2.38 4.68 0 4 C0 2.68 0 1.36 0 0 Z " fill="#698CB8" transform="translate(217,198)"/>
<path d="M0 0 C2.6875 -0.3125 2.6875 -0.3125 5 0 C5 0.66 5 1.32 5 2 C4.34 2 3.68 2 3 2 C2.67 3.32 2.34 4.64 2 6 C0.68 6.33 -0.64 6.66 -2 7 C-2.33 6.34 -2.66 5.68 -3 5 C-1.875 2.375 -1.875 2.375 0 0 Z " fill="#17468D" transform="translate(269,179)"/>
<path d="M0 0 C-0.33 0.66 -0.66 1.32 -1 2 C-6.28 1.34 -11.56 0.68 -17 0 C-17 -0.33 -17 -0.66 -17 -1 C-14.91814549 -1.22262606 -12.83439574 -1.42757926 -10.75 -1.625 C-9.58984375 -1.74101562 -8.4296875 -1.85703125 -7.234375 -1.9765625 C-4.06127909 -1.99955595 -2.61682756 -1.69705154 0 0 Z " fill="#5279A4" transform="translate(293,380)"/>
<path d="M0 0 C0.66 0.33 1.32 0.66 2 1 C2.38133299 2.9914056 2.71325582 4.99279077 3 7 C3.33 7.66 3.66 8.32 4 9 C3.236875 8.814375 2.47375 8.62875 1.6875 8.4375 C-1.08967375 7.77180827 -1.08967375 7.77180827 -4 9 C-3.71125 8.443125 -3.4225 7.88625 -3.125 7.3125 C-1.9586747 4.91505355 -0.9660119 2.48403061 0 0 Z " fill="#5A7BAA" transform="translate(197,306)"/>
<path d="M0 0 C0.66 0.33 1.32 0.66 2 1 C3 4 3 4 2.22265625 5.82421875 C1.1484375 7.54947917 0.07421875 9.27473958 -1 11 C-1.33 11 -1.66 11 -2 11 C-2 9.02 -2 7.04 -2 5 C-2.66 5 -3.32 5 -4 5 C-3 3 -3 3 -1 2 C-0.67 1.34 -0.34 0.68 0 0 Z " fill="#21508C" transform="translate(190,354)"/>
<path d="M0 0 C1.65 0 3.3 0 5 0 C4.67 1.65 4.34 3.3 4 5 C3.01 5.33 2.02 5.66 1 6 C0.34 5.34 -0.32 4.68 -1 4 C-0.625 1.875 -0.625 1.875 0 0 Z " fill="#2F5D90" transform="translate(230,171)"/>
<path d="M0 0 C0.33 0.66 0.66 1.32 1 2 C2.65 1.67 4.3 1.34 6 1 C4.52307692 5.67692308 4.52307692 5.67692308 1.875 7.3125 C0.946875 7.6528125 0.946875 7.6528125 0 8 C0 5.36 0 2.72 0 0 Z " fill="#5378AC" transform="translate(186,171)"/>
<path d="M0 0 C4.875 2.625 4.875 2.625 6 6 C3.36 5.67 0.72 5.34 -2 5 C-2 4.01 -2 3.02 -2 2 C-1.34 2 -0.68 2 0 2 C0 1.34 0 0.68 0 0 Z " fill="#154989" transform="translate(258,329)"/>
<path d="M0 0 C0.66 0.33 1.32 0.66 2 1 C2.33 1.99 2.66 2.98 3 4 C3.66 3.67 4.32 3.34 5 3 C5 4.65 5 6.3 5 8 C2.50638429 6.79618552 0.31856917 5.54571278 -2 4 C-1.34 2.68 -0.68 1.36 0 0 Z " fill="#1A4A85" transform="translate(202,154)"/>
<path d="M0 0 C0 0.66 0 1.32 0 2 C-3.07617188 2.29296875 -3.07617188 2.29296875 -6.15234375 2.5859375 C-6.76207031 2.72257812 -7.37179687 2.85921875 -8 3 C-8.33 3.66 -8.66 4.32 -9 5 C-9.33 3.68 -9.66 2.36 -10 1 C-6.78548731 -0.60725635 -3.56387464 -0.05748185 0 0 Z " fill="#3C6196" transform="translate(320,361)"/>
<path d="M0 0 C-0.33 0.66 -0.66 1.32 -1 2 C-1.99 2.33 -2.98 2.66 -4 3 C-4.99 4.485 -4.99 4.485 -6 6 C-6.66 5.67 -7.32 5.34 -8 5 C-8.625 2.9375 -8.625 2.9375 -9 1 C-3.375 -1.125 -3.375 -1.125 0 0 Z " fill="#164887" transform="translate(245,346)"/>
<path d="M0 0 C0.99 0.33 1.98 0.66 3 1 C3 1.99 3 2.98 3 4 C-2.28 3.67 -7.56 3.34 -13 3 C-13 2.67 -13 2.34 -13 2 C-6.565 1.505 -6.565 1.505 0 1 C0 0.67 0 0.34 0 0 Z " fill="#4D76A1" transform="translate(243,200)"/>
<path d="M0 0 C2 1.5625 2 1.5625 4 4 C4.25 7.75 4.25 7.75 4 11 C3.67 11 3.34 11 3 11 C3 9.35 3 7.7 3 6 C2.01 6 1.02 6 0 6 C-0.38218767 4.34385343 -0.71395102 2.67542976 -1 1 C-0.67 0.67 -0.34 0.34 0 0 Z " fill="#31548E" transform="translate(269,165)"/>
<path d="M0 0 C-0.61538462 5.53846154 -0.61538462 5.53846154 -2.5625 7.875 C-3.036875 8.24625 -3.51125 8.6175 -4 9 C-4 6.36 -4 3.72 -4 1 C-2 0 -2 0 0 0 Z " fill="#204B82" transform="translate(194,329)"/>
<path d="M0 0 C-0.33 1.98 -0.66 3.96 -1 6 C-2.9375 5.6875 -2.9375 5.6875 -5 5 C-5.33 4.01 -5.66 3.02 -6 2 C-3 0 -3 0 0 0 Z " fill="#245797" transform="translate(211,317)"/>
<path d="M0 0 C0.99 0 1.98 0 3 0 C4.125 3.75 4.125 3.75 3 6 C1.68 5.34 0.36 4.68 -1 4 C-0.67 2.68 -0.34 1.36 0 0 Z M-2 5 C-1.67 5.66 -1.34 6.32 -1 7 C-1.66 6.67 -2.32 6.34 -3 6 C-2.67 5.67 -2.34 5.34 -2 5 Z " fill="#3A63AA" transform="translate(327,363)"/>
<path d="M0 0 C0.99 0.33 1.98 0.66 3 1 C2.34 2.98 1.68 4.96 1 7 C-0.32 6.67 -1.64 6.34 -3 6 C-3 3 -3 3 -2 1 C-1.34 1.33 -0.68 1.66 0 2 C0 1.34 0 0.68 0 0 Z " fill="#285E9A" transform="translate(270,348)"/>
<path d="M0 0 C1.32 0.66 2.64 1.32 4 2 C4 2.66 4 3.32 4 4 C4.99 4 5.98 4 7 4 C7 4.66 7 5.32 7 6 C4.03 5.505 4.03 5.505 1 5 C1 4.34 1 3.68 1 3 C0.34 3 -0.32 3 -1 3 C-0.67 2.01 -0.34 1.02 0 0 Z " fill="#4875B0" transform="translate(241,348)"/>
<path d="M0 0 C2.35171131 0.59861742 4.6859378 1.26924352 7 2 C7.33 2.66 7.66 3.32 8 4 C6.02 4.33 4.04 4.66 2 5 C1.34 3.35 0.68 1.7 0 0 Z M0 5 C0.99 5.495 0.99 5.495 2 6 C1.34 6.66 0.68 7.32 0 8 C0 7.01 0 6.02 0 5 Z " fill="#275890" transform="translate(259,344)"/>
<path d="M0 0 C3.15467773 0.76943359 4.58588104 1.32952169 6.3125 4.125 C6.539375 4.74375 6.76625 5.3625 7 6 C2 4 2 4 -3 2 C-2.01 1.34 -1.02 0.68 0 0 Z " fill="#406192" transform="translate(209,295)"/>
<path d="M0 0 C0.66 0.66 1.32 1.32 2 2 C0.8125 4.5 0.8125 4.5 -1 7 C-3.6875 7.3125 -3.6875 7.3125 -6 7 C-5.34 6.67 -4.68 6.34 -4 6 C-3.67 5.175 -3.34 4.35 -3 3.5 C-2 1 -2 1 0 0 Z " fill="#174985" transform="translate(238,170)"/>
<path d="M0 0 C-0.99 1.485 -0.99 1.485 -2 3 C-4.31 2.67 -6.62 2.34 -9 2 C-9 1.34 -9 0.68 -9 0 C-5.93109813 -1.53445094 -3.29905734 -0.54984289 0 0 Z " fill="#184E91" transform="translate(261,372)"/>
<path d="M0 0 C1.98 0 3.96 0 6 0 C6.33 0.99 6.66 1.98 7 3 C7.66 3.33 8.32 3.66 9 4 C9 4.66 9 5.32 9 6 C6.03 5.505 6.03 5.505 3 5 C3 3.68 3 2.36 3 1 C2.01 0.67 1.02 0.34 0 0 Z " fill="#4071AB" transform="translate(248,209)"/>
<path d="M0 0 C1.1875 2.5625 1.1875 2.5625 2 5 C-1.77545388 3.90931332 -4.47043472 3.0916909 -7 0 C-3.98968256 -0.93423645 -3.13349732 -1.04449911 0 0 Z " fill="#1B4A86" transform="translate(224,213)"/>
<path d="M0 0 C0.33 0 0.66 0 1 0 C1.36923077 7.50769231 1.36923077 7.50769231 -0.5 10 C-0.995 10.33 -1.49 10.66 -2 11 C-3.125 7.25 -3.125 7.25 -2 5 C-1.34 5 -0.68 5 0 5 C0 3.35 0 1.7 0 0 Z " fill="#6E8DB4" transform="translate(207,157)"/>
<path d="M0 0 C1.65 0 3.3 0 5 0 C5 2.31 5 4.62 5 7 C4.34 7 3.68 7 3 7 C0 2.61538462 0 2.61538462 0 0 Z " fill="#375F96" transform="translate(234,340)"/>
<path d="M0 0 C4.455 0.99 4.455 0.99 9 2 C8.67 2.99 8.34 3.98 8 5 C4.75791433 4.64950425 3.38472296 4.43778819 1.1875 1.9375 C0.795625 1.298125 0.40375 0.65875 0 0 Z " fill="#194885" transform="translate(269,270)"/>
<path d="M0 0 C0.33 0 0.66 0 1 0 C1 2.31 1 4.62 1 7 C2.32 7.66 3.64 8.32 5 9 C5 9.66 5 10.32 5 11 C3.68 10.67 2.36 10.34 1 10 C0.63883954 8.5225254 0.28624952 7.04295325 -0.0625 5.5625 C-0.25972656 4.73878906 -0.45695313 3.91507812 -0.66015625 3.06640625 C-0.82837891 2.04353516 -0.82837891 2.04353516 -1 1 C-0.67 0.67 -0.34 0.34 0 0 Z " fill="#1D4882" transform="translate(171,380)"/>
<path d="M0 0 C2.3125 -0.25 2.3125 -0.25 5 0 C6.8125 2 6.8125 2 8 4 C7.401875 3.835 6.80375 3.67 6.1875 3.5 C3.88655664 2.8885876 3.88655664 2.8885876 1 3 C0.67 2.01 0.34 1.02 0 0 Z " fill="#184984" transform="translate(202,206)"/>
<path d="M0 0 C0.99 0 1.98 0 3 0 C3.33 0.99 3.66 1.98 4 3 C2.35 3.66 0.7 4.32 -1 5 C-1.33 4.01 -1.66 3.02 -2 2 C-1.34 1.34 -0.68 0.68 0 0 Z " fill="#17457C" transform="translate(304,383)"/>
<path d="M0 0 C2 1 2 1 3 3 C3.33 3.99 3.66 4.98 4 6 C3.01 6.495 3.01 6.495 2 7 C0.68 6.01 -0.64 5.02 -2 4 C-1.34 2.68 -0.68 1.36 0 0 Z " fill="#769DB5" transform="translate(261,339)"/>
<path d="M0 0 C0.99 0 1.98 0 3 0 C3.66 1.98 4.32 3.96 5 6 C4.01 6 3.02 6 2 6 C2 5.34 2 4.68 2 4 C1.01 3.67 0.02 3.34 -1 3 C-0.67 2.01 -0.34 1.02 0 0 Z " fill="#2B5997" transform="translate(202,330)"/>
<path d="M0 0 C3.48539917 0.64544429 6.02819057 2.10134397 9 4 C7.68 4.99 6.36 5.98 5 7 C4.731875 6.401875 4.46375 5.80375 4.1875 5.1875 C3.01506533 3.02775192 1.80630718 1.64209744 0 0 Z " fill="#5081BB" transform="translate(216,214)"/>
<path d="M0 0 C0.99 0.66 1.98 1.32 3 2 C2.34 2 1.68 2 1 2 C1 3.65 1 5.3 1 7 C0.01 7.33 -0.98 7.66 -2 8 C-1.125 2.25 -1.125 2.25 0 0 Z " fill="#1D4880" transform="translate(268,187)"/>
<path d="M0 0 C0.93065133 2.60582371 1.14917407 3.64198224 0.0625 6.25 C-0.4634375 7.11625 -0.4634375 7.11625 -1 8 C-2.32 7.01 -3.64 6.02 -5 5 C-3.68 4.67 -2.36 4.34 -1 4 C-0.67 2.68 -0.34 1.36 0 0 Z " fill="#325E98" transform="translate(272,181)"/>
<path d="M0 0 C0.33 0.66 0.66 1.32 1 2 C2.32 2 3.64 2 5 2 C4 5 4 5 1.9375 6.1875 C1.298125 6.455625 0.65875 6.72375 0 7 C0 4.69 0 2.38 0 0 Z " fill="#5382B3" transform="translate(307,355)"/>
<path d="M0 0 C1.04449911 3.13349732 0.93423645 3.98968256 0 7 C-2 6 -2 6 -3 5 C-3.36162029 3.67405895 -3.69728039 2.34061543 -4 1 C-2.68 0.67 -1.36 0.34 0 0 Z " fill="#184B85" transform="translate(186,335)"/>
<path d="M0 0 C0.33 0 0.66 0 1 0 C1.04898438 0.63808594 1.09796875 1.27617187 1.1484375 1.93359375 C1.22320312 2.75988281 1.29796875 3.58617187 1.375 4.4375 C1.44460937 5.26121094 1.51421875 6.08492188 1.5859375 6.93359375 C1.72257813 7.61550781 1.85921875 8.29742187 2 9 C2.66 9.33 3.32 9.66 4 10 C3.67 10.99 3.34 11.98 3 13 C0.75393573 11.22555028 0.04918998 10.41647515 -0.29296875 7.51953125 C-0.25816406 6.62621094 -0.22335938 5.73289062 -0.1875 4.8125 C-0.16042969 3.91144531 -0.13335937 3.01039063 -0.10546875 2.08203125 C-0.07066406 1.39496094 -0.03585938 0.70789063 0 0 Z " fill="#577DAB" transform="translate(228,266)"/>
<path d="M0 0 C0.33 0 0.66 0 1 0 C1 1.65 1 3.3 1 5 C-2 5 -2 5 -5 3 C-4.67 2.34 -4.34 1.68 -4 1 C-2.02 1.495 -2.02 1.495 0 2 C0 1.34 0 0.68 0 0 Z " fill="#538CBA" transform="translate(277,273)"/>
<path d="M0 0 C0.66 0.33 1.32 0.66 2 1 C2 3.97 2 6.94 2 10 C1.67 10 1.34 10 1 10 C0.67 8.02 0.34 6.04 0 4 C-1.65 3.67 -3.3 3.34 -5 3 C-5 2.67 -5 2.34 -5 2 C-3.35 2 -1.7 2 0 2 C0 1.34 0 0.68 0 0 Z " fill="#6580AD" transform="translate(196,200)"/>
<path d="M0 0 C2 3 2 3 2 5 C-1.3 4.67 -4.6 4.34 -8 4 C-8 3.67 -8 3.34 -8 3 C-5.36 2.67 -2.72 2.34 0 2 C0 1.34 0 0.68 0 0 Z " fill="#1F4D81" transform="translate(239,194)"/>
<path d="M0 0 C0.45375 0.66 0.9075 1.32 1.375 2 C1.91125 2.66 2.4475 3.32 3 4 C3.66 4 4.32 4 5 4 C5 4.66 5 5.32 5 6 C3.35 6 1.7 6 0 6 C-0.38218767 4.34385343 -0.71395102 2.67542976 -1 1 C-0.67 0.67 -0.34 0.34 0 0 Z " fill="#6289B1" transform="translate(190,163)"/>
<path d="M0 0 C0.99 0 1.98 0 3 0 C3.33 1.65 3.66 3.3 4 5 C1.525 4.01 1.525 4.01 -1 3 C-0.67 2.01 -0.34 1.02 0 0 Z " fill="#254B82" transform="translate(166,385)"/>
<path d="M0 0 C0.99 0 1.98 0 3 0 C3 1.98 3 3.96 3 6 C1.68 6 0.36 6 -1 6 C-0.67 4.02 -0.34 2.04 0 0 Z " fill="#446C9F" transform="translate(179,342)"/>
<path d="M0 0 C0.33 0.66 0.66 1.32 1 2 C1.99 1.67 2.98 1.34 4 1 C3.625 3.4375 3.625 3.4375 3 6 C2.01 6.495 2.01 6.495 1 7 C1 6.01 1 5.02 1 4 C0.34 3.67 -0.32 3.34 -1 3 C-0.67 2.01 -0.34 1.02 0 0 Z " fill="#235C95" transform="translate(186,83)"/>
<path d="" fill="#FFFFFF" transform="translate(0,0)"/>
<path d="" fill="#000000" transform="translate(0,0)"/>
<path d="" fill="#FFFFFF" transform="translate(0,0)"/>
<path d="" fill="#FFFFFF" transform="translate(0,0)"/>
<path d="" fill="#FFFFFF" transform="translate(0,0)"/>
<path d="" fill="#FFFFFF" transform="translate(0,0)"/>
<path d="" fill="#00FFFF" transform="translate(0,0)"/>
<path d="" fill="#FFFFFF" transform="translate(0,0)"/>
</svg>
